<svg xmlns="http://www.w3.org/2000/svg" xmlns:xlink="http://www.w3.org/1999/xlink" x="0px" y="0px" viewBox="0 0 276.35 268.06" style="enable-background:new 0 0 276.35 268.06;" xml:space="preserve"><style type="text/css">	.st0{fill-rule:evenodd;clip-rule:evenodd;fill:#EDEEF7;}	.st1{fill-rule:evenodd;clip-rule:evenodd;fill:#D6D7F2;}	.st2{fill-rule:evenodd;clip-rule:evenodd;fill:#3C3C6D;}	.st3{fill:none;}	.st4{fill-rule:evenodd;clip-rule:evenodd;fill:#56548C;}	.st5{fill-rule:evenodd;clip-rule:evenodd;fill:#46467C;}	.st6{fill-rule:evenodd;clip-rule:evenodd;fill:#F9FBFC;}	.st7{fill-rule:evenodd;clip-rule:evenodd;fill:#FBD15B;}	.st8{fill-rule:evenodd;clip-rule:evenodd;fill:#EABD4E;}	.st9{fill:#3C3C6D;}	.st10{fill-rule:evenodd;clip-rule:evenodd;fill:#FFC8AF;}	.st11{fill-rule:evenodd;clip-rule:evenodd;fill:#EC827D;}	.st12{fill:#83C9FF;}	.st13{fill:#878CF0;}	.st14{fill:#A8B0F4;}	.st15{fill-rule:evenodd;clip-rule:evenodd;fill:#BEE1F4;}	.st16{fill-rule:evenodd;clip-rule:evenodd;fill:#112B46;}	.st17{fill:#F9FBFC;}	.st18{fill:#A5B7C6;}	.st19{fill:#56548C;}	.st20{fill:#FBD15B;}	.st21{fill:#FFC8AF;}	.st22{fill-rule:evenodd;clip-rule:evenodd;fill:#DCE6EA;}	.st23{fill-rule:evenodd;clip-rule:evenodd;fill:#DD6F6F;}	.st24{fill-rule:evenodd;clip-rule:evenodd;fill:#D66565;}	.st25{fill-rule:evenodd;clip-rule:evenodd;fill:#606BF1;}	.st26{fill-rule:evenodd;clip-rule:evenodd;fill:#2B3BBD;}	.st27{fill:#FFFFFF;}	.st28{clip-path:url(#XMLID_2_);}	.st29{fill:#B1B2F3;}</style><g id="BACKGROUND"></g><g id="OBJECTS">	<path id="XMLID_552_" class="st0" d="M31.24,194.26c-6.46-11.38-9.05-24.76-7.89-37.76c0.6-6.79,2.17-13.68,4.92-19.94  c2.59-5.88,6.09-11.36,5.81-18.07c-0.28-6.57-4.16-13.16-2.07-19.4c3.88-11.56,21.38-11.84,30.68-16.29  c13.24-6.33,16.38-19.06,23.35-30.69c6.96-11.61,17.6-21.18,30.32-25.82c12.72-4.64,27.48-4.04,39.27,2.59  c5.78,3.25,9.45,7.25,12.38,13.21c2.19,4.46,4.38,9.25,8.5,12.04c5.14,3.48,11.46,2.45,17.3,2.94c13.16,1.1,26.41,5.76,36.32,14.69  c4.79,4.32,8.65,9.59,11.23,15.51c2.55,5.84,3.77,12.43,7.58,17.65c3.68,5.04,9.5,8.07,12.98,13.3c4.52,6.78,0.69,14.2,1.7,21.6  c1.6,11.76,11.25,28.21,2.86,39.43c-3.36,4.49-8.28,4.07-13.41,4.04c-6.68-0.03-13.92-0.53-20.32-2.58  c-5.51-1.76-10.88-3.95-16.68-4.22c-4.26-0.2-8.6-0.51-12.85-0.57c-2.77-0.03-5.62,0.75-8.42,1.05  c-5.83,0.62-11.66,1.23-17.49,1.85c-12.95,1.37-25.91,2.74-38.86,4.11c-24.72,2.61-49.44,5.22-74.15,7.83  c-8.01,0.85-16.02,1.69-24.03,2.54C39.59,193.37,31.54,194.79,31.24,194.26z"></path>	<path id="XMLID_551_" class="st1" d="M221.81,232.17c-7.35,3.02-14.92,5.56-21.9,9.4c-8.78,4.83-16.14,11.02-26.12,13.56  c-6.74,1.71-13.91,1.67-20.78,2.63c-7.55,1.05-15.07,2.32-22.69,2.79c-0.47,0.03-0.93,0.06-1.4,0.07c-2.37,0.14-4.74,0.24-7.1,0.29  c-0.46,0.02-0.9,0.03-1.36,0.03c-0.46,0.01-0.9,0.01-1.36,0.01c-0.5,0.01-1,0.01-1.5,0.01c-29.15,0.13-60.03-5.25-83.92-22.98  c-3.52-2.61-6.96-5.57-8.87-9.52c-1.62-3.34-2-7.13-2.77-10.76c-0.88-4.18-2.56-7.94-5.89-10.73c-4.45-3.74-6.58-5.61-4.23-11.71  c7.42-19.21,21.46-35.46,38.19-47.47c23.29-16.73,51.79-26.25,79.89-30.88c15.66-2.58,31.62-3.59,47.48-2.76  c3.8,0.2,7.6,0.51,11.39,0.93c3.56,0.4,7.24,1.31,10.79,1.21c9.03-0.28,18.64,1.44,27.26,4.03c5.74,1.72,14.35,3.51,16.81,9.81  c0.8,2.03,1.68,3.83,3.05,5.55c2.04,2.55,5.28,2.89,7.93,4.4c2.94,1.68,5.52,3.98,7.52,6.72c2.86,3.92,4.48,8.63,5.34,13.4  c1.35,7.52,2.02,16.06,0.13,23.52c-1.91,7.52-5.61,14.5-10.21,20.71c-8.07,10.88-18.42,19.88-30.74,25.58  C225.13,230.77,223.48,231.48,221.81,232.17z"></path>	<g id="XMLID_48_">		<path id="XMLID_550_" class="st2" d="M203.12,183.08c-0.72-0.67-2.73-0.1-6.7-1.24c-3.98-1.13-8.07-0.35-8.75,0.62   c-0.68,0.97,4.4,4.71,6.33,5.05c1.94,0.34,3.07,2.95,5.67,2.95c2.61,0,3.93-2.08,3.93-2.08L203.12,183.08z"></path>		<path id="XMLID_549_" class="st2" d="M90.71,220.21c0,0,7.74,1.76,10.23,1.81c2.5,0.05,4.61,1.8,3.06,3.49   c-1.56,1.69-4.43,3.05-7.92,3.27c-3.49,0.22-8.43,0.59-10.45,0.31c-1.28-2.3-1.4-7.08-1.4-7.08L90.71,220.21z"></path>		<path id="XMLID_548_" class="st2" d="M182.24,192.6c0,0-7.74,1.76-10.23,1.81s-4.61,1.8-3.06,3.49c1.56,1.69,4.43,3.05,7.92,3.27   c3.49,0.22,8.43,0.59,10.45,0.31c1.28-2.3,1.4-7.08,1.4-7.08L182.24,192.6z"></path>		<path id="XMLID_547_" class="st2" d="M69.25,214.43c0.72-0.67,2.73-0.1,6.7-1.24c3.98-1.13,8.07-0.35,8.75,0.62   c0.68,0.97-4.4,4.71-6.33,5.05c-1.94,0.34-3.07,2.95-5.67,2.95c-2.61,0-3.93-2.08-3.93-2.08L69.25,214.43z"></path>		<g id="XMLID_531_">			<line id="XMLID_546_" class="st3" x1="67.06" y1="222.87" x2="67.06" y2="222.79"></line>			<g id="XMLID_537_">				<path id="XMLID_545_" class="st2" d="M67.8,229.01c0,0.22-0.09,0.44-0.27,0.65c-0.25,0.28-0.64,0.49-1.1,0.62     c-0.65,0.2-1.43,0.22-2.14,0.03l-8.76-2.32c-1.46-0.38-3.14,0.11-3.46,1.02l-1.89,5.41c-0.23,0.67-1.26,1.14-2.42,1.14     c-0.13,0-0.26-0.01-0.39-0.02c-0.77-0.07-1.4-0.34-1.77-0.7c-0.17-0.17-0.29-0.36-0.33-0.57v-0.03     c-0.02-0.09-0.01-0.18,0.01-0.28l0.73-3.83l0.32-1.67c0.17-0.92-1.17-1.69-2.76-1.59l-9.67,0.61c-0.09,0.01-0.18,0.01-0.27,0.01     c-0.41,0-0.8-0.06-1.15-0.16c-0.68-0.21-1.19-0.59-1.32-1.05c-0.21-0.76,0.65-1.47,1.95-1.63l9.46-1.1     c0.41-0.05,0.78-0.15,1.08-0.29c0.83-0.4,1.16-1.09,0.67-1.7l-3.35-4.23l-0.67-0.85c-0.13-0.16-0.2-0.32-0.22-0.48     c-0.01-0.04-0.01-0.08-0.01-0.12c0-0.52,0.49-1.02,1.35-1.27c1.19-0.35,2.64-0.09,3.29,0.58l4.79,4.87     c0.79,0.8,2.66,0.98,3.84,0.36l7.11-3.76c0.47-0.25,1.07-0.38,1.67-0.38c0.64,0,1.28,0.14,1.77,0.42     c0.52,0.3,0.76,0.7,0.73,1.09c-0.02,0.32-0.24,0.64-0.64,0.9l-0.57,0.35l-5.94,3.75c-1.06,0.67-0.78,1.73,0.57,2.2     c0.02,0.01,0.03,0.02,0.05,0.02l8.42,2.77C67.35,228.02,67.8,228.51,67.8,229.01z"></path>				<path id="XMLID_544_" class="st2" d="M43.67,223.25l-3.35-4.23c-0.13-0.16-0.2-0.33-0.22-0.49v-2.54     c0.02,0.16,0.09,0.32,0.22,0.48l0.67,0.85l3.35,4.23C44.83,222.16,44.5,222.85,43.67,223.25z"></path>				<path id="XMLID_543_" class="st2" d="M60.28,223.42c-0.01-0.03-0.01-0.07-0.01-0.1c0-0.04,0.01-0.09,0.01-0.13V223.42z"></path>				<path id="XMLID_542_" class="st2" d="M46.34,228.45l-0.32,1.67c-0.48-0.47-1.4-0.78-2.44-0.71l-9.67,0.61     c-0.09,0.01-0.18,0.01-0.27,0.01c-1.21,0-2.27-0.51-2.47-1.22v-2.56c0.13,0.47,0.64,0.85,1.32,1.05     c0.35,0.1,0.74,0.16,1.15,0.16c0.09,0,0.18-0.01,0.27-0.01l9.67-0.61C45.17,226.76,46.51,227.53,46.34,228.45z"></path>				<path id="XMLID_541_" class="st2" d="M51.36,233.27v0.45C51.32,233.57,51.32,233.42,51.36,233.27z"></path>				<path id="XMLID_540_" class="st2" d="M67.8,229.01v2.57c-0.01,0.21-0.09,0.42-0.27,0.63c-0.6,0.68-2.03,0.97-3.24,0.65     l-8.76-2.32c-1.46-0.38-3.14,0.11-3.46,1.02l-1.89,5.41c-0.23,0.67-1.25,1.14-2.41,1.14c-0.14,0-0.27-0.01-0.41-0.02     c-1.15-0.1-2-0.65-2.09-1.3c0,0,0-0.1,0-0.26v-2.27c0.04,0.21,0.15,0.4,0.33,0.57c0.36,0.36,1,0.63,1.77,0.7     c0.13,0.01,0.26,0.02,0.39,0.02c1.16,0,2.19-0.47,2.42-1.14l1.89-5.41c0.32-0.9,2-1.4,3.46-1.02l8.76,2.32     c0.71,0.19,1.5,0.17,2.14-0.03c0.46-0.13,0.85-0.34,1.1-0.62C67.71,229.45,67.8,229.23,67.8,229.01z"></path>				<path id="XMLID_539_" class="st2" d="M64.64,217.77v2.47c0.01,0.35-0.21,0.7-0.64,0.98l-5.94,3.75     c-1.34-0.46-1.63-1.53-0.57-2.2l5.94-3.75l0.57-0.35C64.4,218.41,64.62,218.09,64.64,217.77z"></path>				<line id="XMLID_538_" class="st3" x1="60.28" y1="223.45" x2="60.28" y2="223.42"></line>			</g>			<path id="XMLID_536_" class="st2" d="M67.64,233.7c-0.08,1.21-1.14,2.13-2.36,2.04c-1.22-0.08-2.14-1.13-2.06-2.34    c0.08-1.21,1.14-2.13,2.36-2.04C66.79,231.44,67.72,232.49,67.64,233.7z"></path>			<path id="XMLID_535_" class="st2" d="M50,239.19c-0.08,1.21-1.14,2.13-2.36,2.04c-1.22-0.08-2.14-1.13-2.06-2.34    c0.08-1.21,1.14-2.13,2.36-2.04C49.16,236.93,50.08,237.98,50,239.19z"></path>			<path id="XMLID_534_" class="st2" d="M35.57,231.22c-0.08,1.21-1.14,2.13-2.36,2.04c-1.22-0.08-2.14-1.13-2.06-2.34    c0.08-1.21,1.14-2.13,2.36-2.04C34.73,228.96,35.65,230.01,35.57,231.22z"></path>			<path id="XMLID_533_" class="st2" d="M43.66,221.96c-0.08,1.21-1.14,2.13-2.36,2.04c-1.22-0.08-2.14-1.13-2.06-2.34    c0.08-1.21,1.14-2.13,2.36-2.04C42.81,219.7,43.74,220.75,43.66,221.96z"></path>			<path id="XMLID_532_" class="st2" d="M65.42,222.94c-0.08,1.21-1.14,2.13-2.36,2.04c-1.22-0.08-2.14-1.13-2.06-2.34    c0.08-1.21,1.14-2.13,2.36-2.04C64.58,220.68,65.5,221.73,65.42,222.94z"></path>		</g>		<path id="XMLID_530_" class="st4" d="M53.08,226.26c0,2.91-6.21,2.34-6.21,0v-20.32h6.21V226.26z"></path>		<path id="XMLID_529_" class="st2" d="M45.47,187.59c0,0,17.83-6.12,25.36-5.21c7.54,0.91,5.86,33.53,5.86,33.53s-4,0.68-7.96,0   c-1.69-9.06-4.41-19.03-4.41-19.03s-16.4,4.74-18.85,2.37C43.02,196.88,45.47,187.59,45.47,187.59z"></path>		<path id="XMLID_528_" class="st2" d="M45.47,187.59c0,0,17.83-6.12,25.36-5.21c7.54,0.91,5.86,33.53,5.86,33.53   c-0.61,1.22-5.52,3.75-7.96,0c-1.69-9.06-4.41-19.03-4.41-19.03s-16.4,4.74-18.85,2.37C43.02,196.88,45.47,187.59,45.47,187.59z"></path>		<g id="XMLID_525_">			<path id="XMLID_527_" class="st4" d="M74.61,205.83c-1.58,1.48-20.54,11.97-24.07,13.92c-0.44,0.24-0.98,0.26-1.39,0    c0,0-0.01,0-0.01-0.01l-0.01-0.01c-1.98-1.26-2.96-5.72,0.85-8.54c1.12-0.84,21.32-14.42,24.53-13.49h0.01    c0.03,0.01,0.07,0.03,0.1,0.04c0.1,0.05,0.2,0.11,0.29,0.19C76.45,199.21,76.25,204.28,74.61,205.83z"></path>			<path id="XMLID_526_" class="st2" d="M74.5,197.7c-3.22-0.93-23.41,12.65-24.53,13.49c-3.81,2.83-2.83,7.29-0.85,8.54l-22.43-13    l-0.77-0.45l-0.02-0.01c-1.76-1.5-2.45-5.64,1.16-8.32c1.14-0.84,21.8-14.74,24.64-13.44l0.19,0.11L74.5,197.7z"></path>		</g>		<g id="XMLID_522_">			<path id="XMLID_524_" class="st2" d="M124.28,105.47c-0.6-4.79-2.85-33.7-7.06-37c0,0-2.87-3.05-4.17-1.77l0,0L92.02,78.84    L93,91.93l9.13,29.91l20.38-11.76l0,0C123.79,109.72,124.59,108,124.28,105.47z"></path>			<path id="XMLID_523_" class="st5" d="M95.93,80.8c4.21,3.3,6.45,32.22,7.06,37c0.6,4.79-2.82,6.7-5.94,1.84    c-3.11-4.86-5.92-32.43-5.92-38.19C91.13,75.7,95.93,80.8,95.93,80.8z"></path>		</g>		<path id="XMLID_521_" class="st6" d="M130.02,64.92c-5.88-0.29-15.87,6.67-20.39,12.37c-4.52,5.7-1.72,11.89-0.2,18   c1.53,6.11-0.84,21.41-0.84,22.88c6.94,4.66,23.73,5.33,25.65-1.55c0.82-7.5-4.66-15.4-4.73-19.79   C129.79,87.39,137.79,67.75,130.02,64.92z"></path>		<path id="XMLID_520_" class="st7" d="M124.89,66.29c3.06,13.3,2.1,27.67,1.42,33.3c-0.68,5.63-0.81,24.39-0.81,24.39   c4.53-2.29,6.7-6.53,6.81-8.46c0.11-1.93-1.65-18.19-1.52-19.52c0.13-1.33,2.43-13.89,2.19-20.68c-0.24-6.8-2.8-7.83-2.8-7.83   l-5.82-2.6L124.89,66.29z"></path>		<path class="st7" d="M125.41,69.62l0.79,0.35c-0.1,0.4-0.16,0.83-0.2,1.29c-0.01-0.08-0.03-0.16-0.05-0.24L125.41,69.62z"></path>		<path id="XMLID_519_" class="st7" d="M116.37,67.68c4.53,9.68,2.35,18.55,2.15,26.51c-0.2,7.96-4.33,30.32-4.33,30.32   c-7.93-1.98-8.88-7.29-10.41-10.01c-3.66-18.62,0.96-33.75,4.4-39.33C110.88,70.8,116.37,67.68,116.37,67.68z"></path>		<path class="st8" d="M111.4,79.99c-7.34-1.84-3.63,15.46-0.03,22.34c1.82,3.48,3.26,5.49,5.45,6.6c0.71-4.68,1.36-9.45,1.6-12.83   C116.57,89.87,115.13,81.82,111.4,79.99z"></path>		<polygon id="XMLID_517_" class="st9" points="81.14,142.95 85.28,140.05 86.66,140.05 86.07,140.93 81.65,143.98   "></polygon>		<g id="XMLID_510_">			<path id="XMLID_516_" class="st2" d="M74.65,129.4c-0.6-4.79-2.85-33.7-7.06-37c0,0-2.87-3.05-4.17-1.77l0,0L42.4,102.76    l0.98,13.08l9.13,29.91L72.89,134l0,0C74.17,133.64,74.97,131.92,74.65,129.4z"></path>			<path id="XMLID_515_" class="st5" d="M46.31,104.72c4.21,3.3,6.45,32.22,7.06,37c0.6,4.79-2.82,6.7-5.94,1.84    c-3.11-4.86-5.92-32.43-5.92-38.19C41.51,99.62,46.31,104.72,46.31,104.72z"></path>		</g>		<path id="XMLID_509_" class="st2" d="M206.62,32.38c-4.88,2.44-13.89,22.22-12.36,26.85c1.53,4.64,5.69,2.09,8.55-1.99   c3.94-5.62,7.89-17.84,7.4-20.9C209.73,33.29,206.62,32.38,206.62,32.38z"></path>		<g id="XMLID_491_">			<g id="XMLID_495_">				<g id="XMLID_497_">					<path id="XMLID_508_" class="st4" d="M207.82,135.02c0,0-7.57,8.85-9.59,9.44c-2.02,0.59-0.2,2.67,1.35,2.83      c1.55,0.16,6.48-0.05,7.91-1.46c1.44-1.41,5.5-2.92,5.5-2.92c0-4.59-1.1-7.47-1.1-7.47L207.82,135.02z"></path>					<path id="XMLID_507_" class="st2" d="M205.17,72.54c0,0-0.98,19.58-0.62,25.99c0.36,6.42,1.92,38.28,1.92,38.28      c4.14,0.89,6.78,0,6.78,0c1.36-24.43,1.32-31.46,1.71-35.1c0.39-3.64,0.87-14.18,0.87-14.18c2.92-6.05-0.13-13.91-1.58-15.81      C212.82,69.84,205.17,72.54,205.17,72.54z"></path>					<path id="XMLID_506_" class="st4" d="M220.2,143.42c-0.25,3.58-1.55,7.79-1.87,9.94c-0.33,2.14,0.44,3.36,0.94,4.05      c0.49,0.69,6.54-1.31,7.37-3.64c0.83-2.33-0.87-4.37-1-8.74C223.68,141.53,220.2,143.42,220.2,143.42z"></path>					<path id="XMLID_505_" class="st2" d="M211.46,74.06c0,0,1.04,17.82,2.68,23.75c1.64,5.94,3.12,23.34,3.82,26.37      c0.7,3.04,1.55,21.79,1.55,21.79c3.78,0.95,6.72,0,6.72,0c-0.08-17.56,0.35-31.83,0-36.65c-0.35-4.82,0.14-19.09,0.14-19.09      c1.56-6.64,1.65-7.49,0-11.91C224.72,73.92,217.62,70.42,211.46,74.06z"></path>					<path id="XMLID_504_" class="st6" d="M208.03,31.78c5.46-0.24,18.12,2.6,22.29,7.92c4.17,5.32-1.88,14.72-3.33,20.38      s0.67,19.88,0.67,21.24c-6.47,4.29-22.06,4.83-23.81-1.57c-0.72-6.96,0.87-15.23,0.96-19.31      C204.59,51.69,200.8,34.37,208.03,31.78z"></path>					<path id="XMLID_503_" class="st2" d="M212.72,33.08c-3.52,12.35-4.34,26.2-4,31.44c0.34,5.24,0.49,22.18,0.49,22.18      c-4.09-2.15-5.89-6.1-5.89-7.9s1.54-17.13,1.49-18.36c-0.05-1.23-2.07-15.31-1.49-21.62c0.57-6.32,4.71-7.04,4.71-7.04h5.26      L212.72,33.08z"></path>					<path id="XMLID_502_" class="st2" d="M209.33,18.17c-2.41,0.76,0,6.23,0,6.23V18.17z"></path>					<path id="XMLID_501_" class="st10" d="M209.2,18.89c0,0-0.91,3.2-0.57,5.69s0.57,7.44,2.77,9.03c2.21,1.59,5.37-0.26,7.46-2.03      c2.09-1.78,4.31-5.06,4.36-9.02c0.05-3.97-1.5-8.82-7.22-8.57C210.29,14.23,209.2,18.89,209.2,18.89z"></path>					<path id="XMLID_500_" class="st10" d="M220.3,28.06c0,0-0.45,5.11,0.89,6.99c0.1,1.26-3.5,6.58-7.09,5.65      c-2.09-0.54-1.84-2.97-1.84-2.97c0.22-1.86,0-6.34,0-6.34L220.3,28.06z"></path>					<path id="XMLID_499_" class="st2" d="M207.8,14.62c-0.81,2.94,0.11,4,2.59,4.84c2.48,0.84,9.07-1.07,9.07-1.07      c-0.45,3.15,0.55,4.78,0.55,4.78c1.09-3.09,2.08-1.52,2.18,0.96c0.1,2.47-1.29,2.42-1.29,2.42c0.1,2.08,0.77,2.79,0.77,2.79      c2.65-1.83,6.26-14.08,1.48-14.37C223.08,10.68,209.54,8.32,207.8,14.62z"></path>					<path id="XMLID_498_" class="st2" d="M221.42,34.24c-4.25,8.96-6.48,17.15-6.33,24.54c0.14,7.39,1.67,28.93,1.67,28.93      c7.37-1.79,12.4-3.88,13.83-6.39c-3.16-8.33-4.31-13.93-3.66-16.29c0.65-2.37,6.22-20.43,3.32-25.79      C227.5,36.24,221.42,34.24,221.42,34.24z"></path>				</g>				<path id="XMLID_496_" class="st6" d="M220.47,33.04c0.03,0.15,0.95,1.2,0.95,1.2s-1.84,4.03-2.51,5.81s-2.41,3.26-2.41,3.26     l-2.39-2.61C217.4,38.96,220.47,33.04,220.47,33.04z"></path>			</g>			<path id="XMLID_494_" class="st6" d="M212.57,34.33c0.22-0.27,0.74,5.03,1.54,6.37c-1.53,1.44-2.44,1.83-2.44,1.83    S210.75,36.59,212.57,34.33z"></path>			<path id="XMLID_493_" class="st11" d="M214.31,40.59l-2.04,1.25c0.47,1.65,0.5,2.71,0.5,2.71h1.91l1.42-2.03L214.31,40.59z"></path>			<path id="XMLID_492_" class="st11" d="M212.77,44.55c-2.84,14.72-2.55,23.83-2.55,23.83l1.44,4.05l3.11-4.54    c0,0-2.25-17.3-0.1-23.34C213.5,43.78,212.77,44.55,212.77,44.55z"></path>		</g>		<path id="XMLID_490_" class="st6" d="M80.4,88.84c-5.88-0.29-18.76,3.75-23.28,9.46c-4.52,5.7,1.16,14.8,2.69,20.91   c1.53,6.11-0.84,21.41-0.84,22.88c6.94,4.66,23.73,5.33,25.65-1.55c0.82-7.5-4.66-15.4-4.73-19.79   C80.17,111.32,88.17,91.67,80.4,88.84z"></path>		<path id="XMLID_489_" class="st4" d="M75.27,90.21c3.06,13.3,2.1,27.67,1.42,33.3c-0.68,5.63-0.81,24.39-0.81,24.39   c4.53-2.29,6.7-6.53,6.81-8.46c0.11-1.93-1.65-18.19-1.52-19.52c0.13-1.33,4.14-16.69,3.89-23.49c-0.24-6.8-4.66-7.6-4.66-7.6   l-5.67-0.03L75.27,90.21z"></path>		<path id="XMLID_488_" class="st10" d="M80.58,75.04c0,0,0.52,3.43,0.58,6.13c0.09,4.39-0.65,8.01-3.04,9.71   c-2.38,1.7-6.75,0.58-9-1.34c-2.24-1.93-3.64-6.36-3.67-10.63c-0.03-4.27,1.67-9.49,7.82-9.19   C79.43,70.01,80.58,75.04,80.58,75.04z"></path>		<path id="XMLID_487_" class="st10" d="M67.2,84.77c0,0,0.45,5.5-1,7.52c-0.11,1.35,3.74,7.11,7.6,6.13c2.25-0.57,2-3.19,2-3.19   c-0.23-2,0.04-6.83,0.04-6.83L67.2,84.77z"></path>		<path id="XMLID_486_" class="st2" d="M80.09,70.67c-3.42-4.76-16.11-0.82-15.05,3.66c-4.91,1.57-1.73,14.25,4.07,15.21   c0,0,2.71-2.71,2.47-3.39c-0.55,0.25-1.3,0.25-1.63-1.3c-0.56-2.61,1.08-4.3,3.04-1.36c0,0,0.3-2.3-1-5.47c0,0,6.57-0.61,8.7-2.46   C81.83,74.57,82.01,73.34,80.09,70.67z"></path>		<path id="XMLID_485_" class="st4" d="M65.96,91.41c4.53,9.68,3.13,18.75,2.94,26.71c-0.2,7.96-4.33,30.32-4.33,30.32   c-7.93-1.98-8.88-7.29-10.41-10.01c-3.66-18.62-1.26-35.61,2.18-41.2C59.04,92.85,65.96,91.41,65.96,91.41z"></path>		<path class="st2" d="M68.78,120.2c-2.32-6.56-4.28-15.67-8.18-17.59c-7.34-1.84-5.14,16.5-1.55,23.38   c2.18,4.18,4.38,6.48,8.04,7.52C67.83,128.72,68.52,123.73,68.78,120.2z"></path>		<path id="XMLID_484_" class="st6" d="M66.99,90.13c-0.03,0.17-1.03,1.28-1.03,1.28s1.96,4.35,2.67,6.27   c0.71,1.92,2.58,3.53,2.58,3.53l2.59-2.79C70.26,96.52,66.99,90.13,66.99,90.13z"></path>		<path id="XMLID_483_" class="st6" d="M75.49,91.56c-0.23-0.29-0.83,5.41-1.69,6.86c1.64,1.56,2.62,1.98,2.62,1.98   S77.44,94.01,75.49,91.56z"></path>		<g id="XMLID_448_">			<polygon id="XMLID_482_" class="st12" points="65.61,141.65 130.85,179.32 211.63,132.67 146.39,95.01    "></polygon>			<g id="XMLID_480_">				<path id="XMLID_481_" class="st12" d="M70.43,142.81c-1.1,0.63-2.89,0.63-3.99-0.01c-1.11-0.64-1.11-1.67-0.01-2.3     c1.1-0.63,2.89-0.63,3.99,0.01C71.53,141.14,71.53,142.17,70.43,142.81z"></path>			</g>			<g id="XMLID_476_">				<path id="XMLID_479_" class="st12" d="M210.81,133.83c-1.1,0.63-2.89,0.63-3.99-0.01c-1.11-0.64-1.11-1.67-0.01-2.3     c1.1-0.63,2.89-0.63,3.99,0.01C211.91,132.16,211.91,133.2,210.81,133.83z"></path>				<path id="XMLID_478_" class="st13" d="M210.27,195.15c-0.8,0.46-2.11,0.46-2.91-0.01c-0.81-0.47-0.81-1.22-0.01-1.68     c0.8-0.46,2.11-0.46,2.91,0.01C211.07,193.93,211.07,194.68,210.27,195.15z"></path>				<polygon id="XMLID_477_" class="st13" points="205.99,132.67 206.75,194.3 210.87,194.3 211.63,132.67     "></polygon>			</g>			<g id="XMLID_472_">				<path id="XMLID_475_" class="st12" d="M132.64,178.69c-1.1,0.63-2.89,0.63-3.99-0.01c-1.11-0.64-1.11-1.67-0.01-2.3     c1.1-0.63,2.89-0.63,3.99,0.01C133.73,177.03,133.74,178.06,132.64,178.69z"></path>				<path id="XMLID_474_" class="st13" d="M132.1,240.01c-0.8,0.46-2.11,0.46-2.91-0.01c-0.81-0.47-0.81-1.22-0.01-1.68     c0.8-0.46,2.11-0.46,2.91,0.01C132.9,238.8,132.9,239.55,132.1,240.01z"></path>				<polygon id="XMLID_473_" class="st13" points="127.82,177.54 128.58,239.17 132.7,239.17 133.46,177.54     "></polygon>			</g>			<g id="XMLID_468_">				<path id="XMLID_471_" class="st12" d="M148.28,97.79c-1.1,0.63-2.89,0.63-3.99-0.01c-1.11-0.64-1.11-1.67-0.01-2.3     c1.1-0.63,2.89-0.63,3.99,0.01C149.37,96.13,149.37,97.16,148.28,97.79z"></path>				<path id="XMLID_470_" class="st12" d="M147.73,159.11c-0.8,0.46-2.11,0.46-2.91-0.01c-0.81-0.47-0.81-1.22-0.01-1.68     c0.8-0.46,2.11-0.46,2.91,0.01C148.53,157.9,148.54,158.65,147.73,159.11z"></path>				<polygon id="XMLID_469_" class="st12" points="143.45,96.64 144.21,158.27 148.33,158.27 149.1,96.64     "></polygon>			</g>			<g id="XMLID_454_">				<path id="XMLID_467_" class="st14" d="M232.69,118.49c-0.03,7.06-4.3,13.79-13.02,18.82l-80.79,46.64     c-19.31,11.15-53.03,9.75-75.32-3.12h0c-11.94-6.89-18.17-15.68-18.43-24.06l-0.02-0.02l0,3.7l0.02-0.01     c0.24,8.4,6.47,17.19,18.43,24.09l0,0c22.29,12.87,56.02,14.27,75.32,3.12L219.67,141c8.73-5.04,13-11.79,13.02-18.85l0.01,0.01     l0-3.7L232.69,118.49z"></path>				<path id="XMLID_466_" class="st13" d="M63.62,180.89L63.62,180.89c22.29,12.87,56.02,14.27,75.32,3.12l80.79-46.64     c8.72-5.03,12.99-11.77,13.02-18.82c0.03-8.57-6.2-17.61-18.43-24.66l0,0c-22.29-12.87-56.02-14.27-75.32-3.12L58.21,137.4     c-8.97,5.18-13.24,12.15-13.02,19.42C45.45,165.21,51.68,174,63.62,180.89z"></path>				<g id="XMLID_456_">					<path id="XMLID_465_" class="st2" d="M208.04,132.09l-12.16-7.02l-20.55,11.86l-1.58,0.23v0.41c0,0.17,0.07,0.3,0.22,0.4      l12.39,7.15c0.38,0.22,1.03,0.19,1.47-0.06l20.56-11.87c0.27-0.15,0.38-0.35,0.35-0.54v-0.68L208.04,132.09z"></path>					<g id="XMLID_462_">						<path id="XMLID_464_" class="st4" d="M195.88,124.39l-22.13,12.78l-5.18-16.36c-0.15-0.49,0.03-1.06,0.41-1.28l20.91-12.07       c0.38-0.22,0.8,0,0.95,0.49L195.88,124.39z"></path>						<polygon id="XMLID_463_" class="st15" points="194.71,123.72 174.28,135.51 169.6,121.05 190.24,109.14       "></polygon>					</g>					<g id="XMLID_457_">						<path id="XMLID_461_" class="st4" d="M208.39,132.53l-20.56,11.87c-0.43,0.25-1.09,0.28-1.47,0.06l-12.62-7.28l22.13-12.78       l12.62,7.28C208.87,131.89,208.82,132.27,208.39,132.53z"></path>						<path id="XMLID_460_" class="st4" d="M208.39,132.53l-20.56,11.87c-0.43,0.25-1.09,0.28-1.47,0.06l-12.62-7.28l22.13-12.78       l12.62,7.28C208.87,131.89,208.82,132.27,208.39,132.53z"></path>						<polygon id="XMLID_459_" class="st16" points="201.97,129.13 181.95,140.69 175.98,137.24 196,125.68       "></polygon>						<path id="XMLID_458_" class="st2" d="M199.19,136.33l-4.77,2.75c-0.27,0.16-0.68,0.17-0.91,0.04l-2.29-1.32       c-0.23-0.14-0.2-0.37,0.07-0.53l4.77-2.75c0.27-0.16,0.68-0.17,0.91-0.04l2.29,1.32       C199.49,135.94,199.46,136.17,199.19,136.33z"></path>					</g>				</g>				<path id="XMLID_455_" class="st17" d="M59.38,167.92c0.51-1.02,10.05-18.76,10.05-18.76l14.06,4.59c0,0-8.28,21.9-9.4,21.43     C72.98,174.72,59.38,167.92,59.38,167.92z"></path>			</g>			<polygon id="XMLID_453_" class="st17" points="89.11,130.28 100.64,121.46 121.69,123.33 109.61,132.38    "></polygon>			<g id="XMLID_449_">				<path id="XMLID_452_" class="st18" d="M103.21,164.36l-0.17,0.01c-0.03-0.02-0.06-0.05-0.09-0.07l-9.66-5.57     c-0.38-0.22-1.05-0.19-1.49,0.06l-13.07,7.54c-0.07,0.04-0.13,0.09-0.18,0.14l-0.18,0.02l0,0.35l0.01,0     c0.01,0.14,0.09,0.26,0.25,0.36l9.65,5.57c0.38,0.22,1.05,0.19,1.49-0.06l13.07-7.54c0.24-0.14,0.36-0.31,0.36-0.48l0,0V164.36z     "></path>				<path id="XMLID_451_" class="st19" d="M88.29,172.46l-9.65-5.57c-0.38-0.22-0.33-0.61,0.11-0.86l13.07-7.54     c0.44-0.26,1.11-0.28,1.49-0.06l9.66,5.57c0.38,0.22,0.33,0.61-0.11,0.86l-13.07,7.54C89.34,172.65,88.67,172.68,88.29,172.46z"></path>				<polygon id="XMLID_450_" class="st20" points="89.27,171.84 79.71,166.32 92.66,158.85 102.21,164.36     "></polygon>			</g>		</g>		<g id="XMLID_445_">			<path id="XMLID_447_" class="st4" d="M82.1,89.57c5.49,2.46,4.24,17.13,8.44,20.81c2.38,2.09,14.08,4.76,17.33,4.82    c1.27,2.61-0.98,5.54-0.98,5.54c-19.96-1.6-21.37-2.09-25.98-10.15C77.32,104.3,74.76,87.9,82.1,89.57z"></path>			<path id="XMLID_446_" class="st21" d="M107.22,116.01c0,0,5.4-0.65,6.41-0.19c1.01,0.46,3.33,1.88,3.97,2.53    c0.64,0.65,2.68,2.39,0.98,2.82c-0.54,0.14-3.48-0.76-4.3-1.13c-0.82-0.37-2.31-0.8-2.31-0.43c0,0.37,3.77,1.37,3.25,2.2    c-0.48,0.77-1.43,0.2-4.09-0.7c-2.65-0.9-5.28-1.34-5.28-1.34C105.39,117.85,105.99,116.7,107.22,116.01z"></path>		</g>		<g id="XMLID_441_">			<path id="XMLID_444_" class="st9" d="M98.63,119.15l-3.85,4.91c-0.11,0.14-0.09,0.35,0.06,0.46c0.14,0.11,0.35,0.09,0.46-0.06    l3.85-4.91c0.11-0.14,0.09-0.35-0.06-0.46C98.95,118.98,98.74,119.01,98.63,119.15"></path>			<path id="XMLID_443_" class="st10" d="M91.43,121.62c1.72,0.87,4.59,0.33,4.59,0.66s-0.55,1.32-1.76,1.32    C93.04,123.6,91.43,121.62,91.43,121.62z"></path>			<path id="XMLID_442_" class="st10" d="M86.66,124.26c0.99-1.1,3.53-3.63,5.56-2.31c2.03,1.32,3.35,1.32,4.01,1.54    c0.66-0.99,1.65-0.22,2.31,1.21c0.66,1.43-3.63,3.19-4.29,3.74c-0.66,0.55-7.6-0.57-7.6-0.57V124.26z"></path>		</g>		<g id="XMLID_439_">			<path id="XMLID_440_" class="st4" d="M60.6,98.42c5.49,2.7,7.15,19.65,11.34,23.68c2.38,2.28,11.9,0.46,15.15,0.52    c1.27,2.86-0.45,6.32-0.45,6.32c-18.31,2.17-22.98,1.68-27.59-7.13C55.46,114.93,53.26,96.59,60.6,98.42z"></path>		</g>		<path id="XMLID_438_" class="st10" d="M214.59,56.56c-0.55-1.76-1.58-3.46-3.11-4.46c-0.41-0.27-0.85-0.49-1.31-0.66   c-0.21-0.08-0.42-0.15-0.64-0.16c-0.17-0.01-0.52-0.1-0.66,0.02c-0.09,0.08-0.07,0.23-0.02,0.34c0.19,0.43,0.63,0.67,1.04,0.91   c0.69,0.41,0.95,0.99,1.19,1.67c-0.67-0.68-1.28-1.43-2.08-1.95c-0.79-0.51-1.68-0.86-2.56-1.19c-0.39-0.14-0.79-0.28-1.2-0.22   c-0.47,0.07-0.67,0.45-0.35,0.83c0.27,0.33,0.75,0.46,1.11,0.67c0.49,0.28,0.95,0.62,1.36,1c0.19,0.18,0.41,0.36,0.56,0.57   c0.11,0.15,0.24,0.49,0.42,0.56c-0.5-0.22-0.99-0.46-1.47-0.72c-0.42-0.23-0.85-0.35-1.28-0.56c-0.37-0.18-0.72-0.46-1.09-0.66   c-0.2-0.11-0.44-0.21-0.64-0.1c-0.15,0.08-0.22,0.26-0.21,0.42c0.01,0.17,0.08,0.32,0.16,0.46c0.22,0.36,0.53,0.65,0.9,0.85   c0.33,0.18,0.58,0.41,0.89,0.62c0.39,0.27,0.77,0.54,1.13,0.84c0.18,0.15,0.36,0.3,0.53,0.46c0.14,0.13,0.3,0.39,0.46,0.47   c-0.76-0.41-1.5-0.85-2.23-1.33c-0.27-0.18-0.56-0.35-0.8-0.57c-0.29-0.27-0.62-0.46-1.01-0.54c-0.1-0.02-0.2-0.03-0.28,0.02   c-0.11,0.06-0.15,0.21-0.12,0.33c0.03,0.12,0.1,0.23,0.18,0.33c0.44,0.59,0.93,1.15,1.48,1.65c0.49,0.45,1.16,1.08,1.82,1.25   c-0.92-0.24-1.74-0.59-2.43-1.23c-0.32-0.3-0.68-0.6-1.12-0.65c-0.13-0.02-0.29,0-0.36,0.11c-0.07,0.12-0.01,0.27,0.07,0.39   c0.48,0.82,1.2,1.76,2.07,2.19c0.48,0.23,0.9,0.6,1.36,0.87c0.5,0.29,1.01,0.57,1.5,0.87c1.15,0.71,2.6,1.42,3.9,1.78   c0.37,0.1,0.77,0.16,1.15,0.15c0.41-0.01,0.63-0.09,0.94-0.36c0.54-0.46,0.89-1.13,1.05-1.82c0.19-0.82,0.12-1.68-0.05-2.5   C214.77,57.22,214.69,56.89,214.59,56.56z"></path>		<path id="XMLID_437_" class="st10" d="M202.43,57.3c-0.39-2.21-0.91-4.81-2.29-6.63c-0.06-0.08-0.13-0.16-0.22-0.18   c-0.22-0.06-0.37,0.22-0.4,0.44c-0.07,0.65,0.22,1.27,0.42,1.88c0.21,0.65,0.2,1.45,0.11,2.24c-0.05-0.07-0.09-0.14-0.14-0.2   c-1.11-1.46-1.66-3.47-2.4-5.16c-0.09-0.2-0.21-0.42-0.43-0.43c-0.3-0.01-0.42,0.38-0.42,0.68c0,1.36,0.28,2.55,0.89,3.77   c-0.6-0.89-1.11-1.85-1.5-2.86c-0.1-0.24-0.24-0.53-0.5-0.55c-1.07-0.08,0.28,4.05,0.48,4.56c-0.56-0.76-0.95-1.64-1.14-2.56   c-0.04-0.18-0.07-0.36-0.16-0.52c-0.11-0.18-0.4-0.35-0.57-0.17c-0.14,0.16-0.17,0.58-0.19,0.79c-0.05,0.61,0.1,1.22,0.32,1.78   c0.32,0.82,0.79,1.58,1.06,2.41c-0.47-0.58-0.94-1.16-1.4-1.74c-0.1-0.12-0.23-0.25-0.38-0.23c-0.2,0.03-0.27,0.31-0.2,0.5   c0.44,1.32,1.12,2.56,2.05,3.6c0.45,0.51,1.02,0.91,1.45,1.42c0.43,0.52,1.04,0.93,1.66,1.19c0.66,0.28,1.38,0.41,2.09,0.35   c0.55-0.04,0.88-0.17,1.2-0.6c0.28-0.37,0.55-0.82,0.62-1.29C202.56,58.97,202.57,58.13,202.43,57.3z"></path>		<path id="XMLID_436_" class="st2" d="M215.01,56.15l9.08,3.09c-0.91-11.9,1.19-24.54,6.17-20.01c2.87,2.61,3.04,24.85,0.83,28.13   c-2.21,3.29-11.68-1.44-18.31-4.76C212.6,59.73,215.01,56.15,215.01,56.15z"></path>		<g id="XMLID_433_">			<path id="XMLID_435_" class="st10" d="M53.54,122.75c2.25-0.37,5.32-0.44,7.5,0.2c3.66,1.08,5.66,3.42,6.54,6.89    c0.89,3.5,1.15,9.33-0.85,12.58c-1.25,2.03-4.04,1.65-6.03,1.12c-2.41-0.64-5.56-1.68-7.54-3.17c-2.75-2.08-4.21-6.63-4.38-9.92    C48.63,127.63,50.1,123.32,53.54,122.75"></path>			<path id="XMLID_434_" class="st4" d="M50.69,123.4c-2.19,1.45-2.03,4.77-1.91,7.06c0.17,3.29,1.62,7.84,4.38,9.92    c1.52,1.15,1.59,1.28,3.63,1.91c0.19-0.09,0.65-0.41,1.18-0.8c1.14-0.83,1.67-2.29,1.26-3.64c-0.41-1.33-0.45-2.92,0.3-3.33    c1.23-0.67,2.04,1.71,2.04,1.71c0.71-0.26,1.78-1.08,1.19-2.49c-0.6-1.41,0-2.9,0-2.9c2.17,0.04,3.18-2.92,3.87-3.3    c1.47-0.82,1.96-1.15,1.72-2.55c-0.15-0.92-0.53-1.82-1.21-2.45c-0.77-0.72-3.35-1.7-4.36-1.95    C56.73,119.09,52.08,120.17,50.69,123.4z"></path>		</g>		<path id="XMLID_432_" class="st4" d="M64.15,145.22c-5.42-2.02-11.7-5.59-20.47,1.44c-8.77,7.03-6.38,35.5-4.21,42.01   c2.17,6.51,16.74,7.04,21.08,6.47c4.35-0.57,0.06-8.08,1.51-13.05C63.5,177.11,74.92,149.23,64.15,145.22z"></path>		<path id="XMLID_431_" class="st4" d="M67.03,146.4c2.29,1.39,8.21,18.71,8.21,18.71l2.15-13.59c0,0,4.86-2.31,7.67,0.76   c-1.94,13.17-2.98,26.7-7.67,27.46C72.7,180.5,64.97,168,60.79,161.9C56.61,155.8,60.08,142.16,67.03,146.4z"></path>		<polygon id="XMLID_430_" class="st9" points="81.34,143.34 85.76,140.05 86.9,139.71 86.37,140.49 81.65,143.98   "></polygon>		<path id="XMLID_429_" class="st10" d="M78.39,152.3c0-0.42-1.7-4.58-1.01-6.12s1.53-2.53,1.53-2.53c0.74-2.37,2.73-2.12,4.31-0.57   c1.58,1.55,3.78,5.39,0.94,8.62C81.12,154.3,78.39,152.3,78.39,152.3z"></path>		<g id="XMLID_426_">			<path id="XMLID_428_" class="st5" d="M22.34,156.36c0,0,0,0.08-0.01,0.22c-1.73-0.15-3.69,1.31-4.49,3.36    c-1.43,3.68,0.48,43.76,3.92,42.91c1.09,1.14,25.02,14.45,25.02,14.45l1.38-46.06C48.17,171.24,31.27,156.6,22.34,156.36z"></path>			<path id="XMLID_427_" class="st11" d="M46.79,217.3c-3.44,0.85-5.35-39.23-3.92-42.91c1.43-3.68,6.6-5.47,7.49,0.58    C51.25,181.02,55.89,215.04,46.79,217.3z"></path>		</g>		<g id="XMLID_423_">			<path id="XMLID_425_" class="st10" d="M141.05,97.7c1.72,0.87,4.59,0.33,4.59,0.66s-0.55,1.32-1.76,1.32    C142.67,99.68,141.05,97.7,141.05,97.7z"></path>			<path id="XMLID_424_" class="st10" d="M136.28,100.34c0.99-1.1,3.53-3.63,5.56-2.31c2.03,1.32,3.35,1.32,4.01,1.54    c0.66-0.99,1.65-0.22,2.31,1.21c0.66,1.43-3.63,3.19-4.29,3.74c-0.66,0.55-7.6-0.57-7.6-0.57V100.34z"></path>		</g>		<g id="XMLID_374_">			<path id="XMLID_422_" class="st2" d="M226.1,157.25c0,0-17.83-6.12-25.36-5.21c-7.54,0.91-5.86,33.53-5.86,33.53s4,0.68,7.96,0    c1.69-9.06,4.41-19.03,4.41-19.03s16.4,4.74,18.85,2.37C228.54,166.54,226.1,157.25,226.1,157.25z"></path>			<g id="XMLID_398_">				<line id="XMLID_421_" class="st3" x1="204.5" y1="192.45" x2="204.5" y2="192.53"></line>				<g id="XMLID_409_">					<path id="XMLID_420_" class="st2" d="M203.76,198.67c0,0.22,0.09,0.44,0.27,0.65c0.25,0.28,0.64,0.49,1.1,0.62      c0.65,0.2,1.43,0.22,2.14,0.03l8.76-2.32c1.46-0.38,3.14,0.11,3.46,1.02l1.89,5.41c0.23,0.67,1.26,1.14,2.42,1.14      c0.13,0,0.26-0.01,0.39-0.02c0.77-0.07,1.4-0.34,1.77-0.7c0.17-0.17,0.29-0.36,0.33-0.57v-0.03c0.02-0.09,0.01-0.18-0.01-0.28      l-0.73-3.83l-0.32-1.67c-0.17-0.92,1.17-1.69,2.76-1.59l9.67,0.61c0.09,0.01,0.18,0.01,0.27,0.01c0.41,0,0.8-0.06,1.15-0.16      c0.68-0.21,1.19-0.59,1.32-1.05c0.21-0.76-0.65-1.47-1.95-1.63l-9.46-1.1c-0.41-0.05-0.78-0.15-1.08-0.29      c-0.83-0.4-1.16-1.09-0.67-1.7l3.35-4.23l0.67-0.85c0.13-0.16,0.2-0.32,0.22-0.48c0.01-0.04,0.01-0.08,0.01-0.12      c0-0.52-0.49-1.02-1.35-1.27c-1.19-0.35-2.64-0.09-3.29,0.58l-4.79,4.87c-0.79,0.8-2.66,0.98-3.84,0.36l-7.11-3.76      c-0.47-0.25-1.07-0.38-1.67-0.38c-0.64,0-1.28,0.14-1.77,0.42c-0.52,0.3-0.76,0.7-0.73,1.09c0.02,0.32,0.24,0.64,0.64,0.9      l0.57,0.35l5.94,3.75c1.06,0.67,0.78,1.73-0.57,2.2c-0.02,0.01-0.03,0.02-0.05,0.02l-8.42,2.77      C204.22,197.68,203.76,198.17,203.76,198.67z"></path>					<path id="XMLID_417_" class="st2" d="M227.89,192.9l3.35-4.23c0.13-0.16,0.2-0.33,0.22-0.49v-2.54      c-0.02,0.16-0.09,0.32-0.22,0.48l-0.67,0.85l-3.35,4.23C226.73,191.82,227.06,192.51,227.89,192.9z"></path>					<path id="XMLID_416_" class="st2" d="M211.28,193.08c0.01-0.03,0.01-0.07,0.01-0.1c0-0.04-0.01-0.09-0.01-0.13V193.08z"></path>					<path id="XMLID_414_" class="st2" d="M225.22,198.11l0.32,1.67c0.48-0.47,1.4-0.78,2.44-0.71l9.67,0.61      c0.09,0.01,0.18,0.01,0.27,0.01c1.21,0,2.27-0.51,2.47-1.22v-2.56c-0.13,0.47-0.64,0.85-1.32,1.05      c-0.35,0.1-0.74,0.16-1.15,0.16c-0.09,0-0.18-0.01-0.27-0.01l-9.67-0.61C226.39,196.42,225.05,197.19,225.22,198.11z"></path>					<path id="XMLID_413_" class="st2" d="M220.2,202.93v0.45C220.25,203.23,220.25,203.08,220.2,202.93z"></path>					<path id="XMLID_412_" class="st2" d="M203.76,198.67v2.57c0.01,0.21,0.09,0.42,0.27,0.63c0.6,0.69,2.03,0.97,3.24,0.65      l8.76-2.32c1.46-0.38,3.14,0.11,3.46,1.02l1.89,5.41c0.23,0.67,1.25,1.14,2.41,1.14c0.14,0,0.27-0.01,0.41-0.02      c1.15-0.1,2-0.65,2.09-1.3c0,0,0-0.1,0-0.26v-2.27c-0.04,0.21-0.15,0.4-0.33,0.57c-0.36,0.36-1,0.63-1.77,0.7      c-0.13,0.01-0.26,0.02-0.39,0.02c-1.16,0-2.19-0.47-2.42-1.14l-1.89-5.41c-0.32-0.9-2-1.4-3.46-1.02l-8.76,2.32      c-0.71,0.19-1.49,0.17-2.14-0.03c-0.46-0.13-0.85-0.34-1.1-0.62C203.85,199.11,203.76,198.88,203.76,198.67z"></path>					<path id="XMLID_411_" class="st2" d="M206.93,187.42v2.47c-0.01,0.35,0.21,0.7,0.64,0.98l5.94,3.75      c1.34-0.46,1.63-1.53,0.57-2.2l-5.94-3.75l-0.57-0.35C207.16,188.07,206.95,187.74,206.93,187.42z"></path>					<line id="XMLID_410_" class="st3" x1="211.28" y1="193.08" x2="211.28" y2="193.11"></line>				</g>				<path id="XMLID_408_" class="st2" d="M203.93,203.36c0.08,1.21,1.14,2.13,2.36,2.04c1.22-0.08,2.14-1.13,2.06-2.34     c-0.08-1.21-1.14-2.13-2.36-2.04C204.77,201.1,203.85,202.15,203.93,203.36z"></path>				<path id="XMLID_407_" class="st2" d="M221.56,208.85c0.08,1.21,1.14,2.13,2.36,2.04c1.22-0.08,2.14-1.13,2.06-2.34     c-0.08-1.21-1.14-2.13-2.36-2.04C222.4,206.59,221.48,207.64,221.56,208.85z"></path>				<path id="XMLID_406_" class="st2" d="M235.99,200.88c0.08,1.21,1.14,2.13,2.36,2.04c1.22-0.08,2.14-1.13,2.06-2.34     c-0.08-1.21-1.14-2.13-2.36-2.04C236.83,198.62,235.91,199.67,235.99,200.88z"></path>				<path id="XMLID_402_" class="st2" d="M227.91,191.62c0.08,1.21,1.14,2.13,2.36,2.04c1.22-0.08,2.14-1.13,2.06-2.34     c-0.08-1.21-1.14-2.13-2.36-2.04C228.75,189.36,227.83,190.4,227.91,191.62z"></path>				<path id="XMLID_399_" class="st2" d="M206.14,192.59c0.08,1.21,1.14,2.13,2.36,2.04c1.22-0.08,2.14-1.13,2.06-2.34     c-0.08-1.21-1.14-2.13-2.36-2.04C206.98,190.34,206.06,191.38,206.14,192.59z"></path>			</g>			<path id="XMLID_397_" class="st4" d="M218.48,195.92c0,2.91,6.21,2.34,6.21,0V175.6h-6.21V195.92z"></path>			<g id="XMLID_386_">				<path id="XMLID_396_" class="st4" d="M196.96,175.48c1.58,1.48,20.54,11.97,24.07,13.92c0.44,0.24,0.98,0.26,1.39,0     c0,0,0.01,0,0.01-0.01l0.01-0.01c1.98-1.26,2.96-5.72-0.85-8.54c-1.12-0.84-21.32-14.42-24.53-13.49h-0.01     c-0.03,0.01-0.07,0.03-0.1,0.04c-0.1,0.05-0.2,0.11-0.29,0.19C195.11,168.86,195.31,173.93,196.96,175.48z"></path>				<path id="XMLID_387_" class="st2" d="M197.07,167.35c3.22-0.93,23.41,12.65,24.53,13.49c3.81,2.83,2.83,7.29,0.85,8.54l22.43-13     l0.77-0.45l0.02-0.01c1.76-1.5,2.45-5.64-1.16-8.32c-1.14-0.84-21.8-14.74-24.64-13.44l-0.19,0.11L197.07,167.35z"></path>			</g>			<path id="XMLID_384_" class="st10" d="M185.85,136.31c0,0-0.48-1.52-1.56-2.33c-1.08-0.8-2.64-1.93-3.37-1.51    c-0.74,0.43,1.67,2.3,1.67,2.3c-2.6-1.02-5.06-1.25-6.17-1.3s-4.39,1.2-3.75,2.18c0.65,0.98,3.25,2.36,4.37,3    c1.12,0.65,4.67,1.83,7.25,1.48C186.87,139.79,185.85,136.31,185.85,136.31z"></path>			<path id="XMLID_383_" class="st4" d="M226.1,159.62c0.76,12.01-12.78,17.7-32.25,12.26c0,0-1.34,5.54-5.11,22.2    c-5.38,0.82-8.81,0-8.81,0s-0.57-32.59,8.81-34.02c9.38-1.43,28.14-1.6,28.11-2.06L226.1,159.62z"></path>			<g id="XMLID_380_">				<path id="XMLID_382_" class="st10" d="M218.03,92.41c-2.25-0.37-5.32-0.44-7.5,0.2c-3.66,1.08-5.66,3.42-6.54,6.89     c-0.89,3.5-1.15,9.33,0.85,12.58c1.25,2.03,4.04,1.65,6.03,1.12c2.41-0.64,5.56-1.68,7.54-3.17c2.75-2.08,4.21-6.63,4.38-9.92     C222.93,97.29,221.46,92.97,218.03,92.41"></path>				<path id="XMLID_381_" class="st11" d="M220.87,93.06c2.19,1.45,2.03,4.77,1.91,7.06c-0.17,3.29-1.62,7.84-4.38,9.92     c-1.52,1.15-1.59,1.28-3.63,1.91c-0.19-0.09-0.65-0.41-1.18-0.8c-1.14-0.83-1.67-2.29-1.26-3.64c0.41-1.33,0.45-2.92-0.3-3.33     c-1.23-0.67-2.04,1.71-2.04,1.71c-0.71-0.26-1.78-1.08-1.19-2.49c0.6-1.41,0-2.9,0-2.9c-2.17,0.04-3.18-2.92-3.87-3.3     c-1.47-0.82-1.96-1.15-1.72-2.55c0.15-0.92,0.53-1.82,1.21-2.45c0.77-0.72,3.35-1.7,4.36-1.95     C214.83,88.75,219.49,89.83,220.87,93.06z"></path>			</g>			<path id="XMLID_379_" class="st6" d="M206.5,114.86c4.69-3.29,10.85-7.62,19.63-0.59c8.77,7.03,8.14,37.55,5.97,44.06    c-2.17,6.51-16.74,7.04-21.08,6.47c-4.35-0.57-0.06-8.08-1.51-13.05C208.06,146.77,197.08,121.47,206.5,114.86z"></path>			<path class="st22" d="M204.52,121.5c-0.46,0.28-1.08,1.28-1.79,2.71c-0.08,5.99,1.96,13.32,3.85,19.04    c1.48-2.14,2.89-4.35,4.18-6.24C214.94,130.9,211.48,117.27,204.52,121.5z"></path>			<g id="XMLID_375_">				<path id="XMLID_377_" class="st5" d="M249.23,126.02c0,0,0,0.08,0.01,0.22c1.73-0.15,3.69,1.31,4.49,3.36     c1.43,3.68-0.48,43.76-3.92,42.91c-1.09,1.14-25.02,14.45-25.02,14.45l-1.38-46.06C223.39,140.9,240.29,126.26,249.23,126.02z"></path>				<path id="XMLID_376_" class="st4" d="M224.77,186.95c3.44,0.85,5.35-39.23,3.92-42.91c-1.43-3.68-6.6-5.47-7.49,0.58     C220.31,150.68,215.68,184.7,224.77,186.95z"></path>			</g>			<path id="XMLID_378_" class="st6" d="M205,116.81c-2.29,1.39-8.85,20.94-8.85,20.94l-9.88-2.9c-1.28,0.02-4.22,2.27-3.61,5.12    c6.2,4.67,9.58,6.42,14.28,7.18s10.12-8.73,14.3-14.83C215.42,126.22,211.96,112.58,205,116.81z"></path>		</g>		<g id="XMLID_364_">			<path id="XMLID_373_" class="st2" d="M160.62,159.57l-12.16-7.02l-20.55,11.86l-1.58,0.23v0.41c0,0.17,0.07,0.3,0.22,0.4    l12.39,7.15c0.38,0.22,1.03,0.19,1.47-0.06l20.56-11.87c0.27-0.15,0.38-0.35,0.35-0.54v-0.68L160.62,159.57z"></path>			<g id="XMLID_370_">				<path id="XMLID_372_" class="st4" d="M148.46,151.87l-22.13,12.78l-5.18-16.36c-0.15-0.49,0.03-1.06,0.41-1.28l20.91-12.07     c0.38-0.22,0.8,0,0.95,0.49L148.46,151.87z"></path>				<polygon id="XMLID_371_" class="st11" points="147.29,151.2 126.86,162.99 122.19,148.53 142.82,136.62     "></polygon>			</g>			<g id="XMLID_365_">				<path id="XMLID_369_" class="st4" d="M160.97,160l-20.56,11.87c-0.43,0.25-1.09,0.28-1.47,0.06l-12.62-7.28l22.13-12.78     l12.62,7.28C161.46,159.37,161.41,159.75,160.97,160z"></path>				<path id="XMLID_368_" class="st4" d="M160.97,160l-20.56,11.87c-0.43,0.25-1.09,0.28-1.47,0.06l-12.62-7.28l22.13-12.78     l12.62,7.28C161.46,159.37,161.41,159.75,160.97,160z"></path>				<polygon id="XMLID_367_" class="st16" points="154.56,156.61 134.54,168.17 128.56,164.72 148.58,153.16     "></polygon>				<path id="XMLID_366_" class="st2" d="M151.77,163.81l-4.77,2.75c-0.27,0.16-0.68,0.17-0.91,0.04l-2.29-1.32     c-0.23-0.14-0.2-0.37,0.07-0.53l4.77-2.75c0.27-0.16,0.68-0.17,0.91-0.04l2.29,1.32C152.07,163.41,152.04,163.65,151.77,163.81z     "></path>			</g>		</g>		<path id="XMLID_363_" class="st2" d="M45.65,190.76c-0.76,12.01,12.78,17.7,32.25,12.26c0,0,1.34,5.54,5.11,22.2   c5.38,0.82,8.61-3.85,8.61-3.85s0.77-28.74-8.61-30.17c-9.38-1.43-28.14-1.6-28.11-2.06L45.65,190.76z"></path>		<g id="XMLID_360_">			<path id="XMLID_362_" class="st10" d="M53.54,122.75c2.25-0.37,5.32-0.44,7.5,0.2c3.66,1.08,5.66,3.42,6.54,6.89    c0.89,3.5,1.15,9.33-0.85,12.58c-1.25,2.03-4.04,1.65-6.03,1.12c-2.41-0.64-5.56-1.68-7.54-3.17c-2.75-2.08-4.21-6.63-4.38-9.92    C48.63,127.63,50.1,123.32,53.54,122.75"></path>			<path id="XMLID_361_" class="st2" d="M50.69,123.4c-2.19,1.45-2.25,4.9-2.13,7.2c0.17,3.29,1.84,7.71,4.59,9.79    c1.52,1.15,1.59,1.28,3.63,1.91c0.19-0.09,0.65-0.41,1.18-0.8c1.14-0.83,1.67-2.29,1.26-3.64c-0.41-1.33-0.45-2.92,0.3-3.33    c1.23-0.67,2.04,1.71,2.04,1.71c0.71-0.26,1.78-1.08,1.19-2.49c-0.6-1.41,0-2.9,0-2.9c2.17,0.04,3.18-2.92,3.87-3.3    c1.47-0.82,1.96-1.15,1.72-2.55c-0.15-0.92-0.53-1.82-1.21-2.45c-0.77-0.72-3.35-1.7-4.36-1.95    C56.73,119.09,52.08,120.17,50.69,123.4z"></path>		</g>		<path id="XMLID_359_" class="st23" d="M64.15,145.22c-5.42-2.02-11.7-5.59-20.47,1.44c-8.77,7.03-6.38,35.5-4.21,42.01   c2.17,6.51,16.74,7.04,21.08,6.47c4.35-0.57,0.06-8.08,1.51-13.05C63.5,177.11,74.92,149.23,64.15,145.22z"></path>		<path id="XMLID_358_" class="st11" d="M67.03,146.4c2.29,1.39,8.21,18.71,8.21,18.71l2.15-13.59c0,0,4.86-2.31,7.67,0.76   c-1.94,13.17-2.98,26.7-7.67,27.46C72.7,180.5,64.97,168,60.79,161.9C56.61,155.8,60.08,142.16,67.03,146.4z"></path>		<polygon id="XMLID_357_" class="st9" points="81.34,143.34 85.76,140.05 86.9,139.71 86.37,140.49 81.65,143.98   "></polygon>		<path id="XMLID_356_" class="st10" d="M78.39,152.3c0-0.42-1.7-4.58-1.01-6.12s1.53-2.53,1.53-2.53c0.74-2.37,2.73-2.12,4.31-0.57   c1.58,1.55,3.78,5.39,0.94,8.62C81.12,154.3,78.39,152.3,78.39,152.3z"></path>		<g id="XMLID_353_">			<path id="XMLID_355_" class="st5" d="M22.34,156.36c0,0,0,0.08-0.01,0.22c-1.73-0.15-3.69,1.31-4.49,3.36    c-1.43,3.68,0.48,43.76,3.92,42.91c1.09,1.14,25.02,14.45,25.02,14.45l1.38-46.06C48.17,171.24,31.27,156.6,22.34,156.36z"></path>			<path id="XMLID_354_" class="st4" d="M46.79,217.3c-3.44,0.85-5.35-39.23-3.92-42.91c1.43-3.68,6.6-5.47,7.49,0.58    C51.25,181.02,55.89,215.04,46.79,217.3z"></path>		</g>		<g id="XMLID_312_">			<path id="XMLID_352_" class="st4" d="M186.67,238.67l-7.59-0.68c0,0-4.85,1.37-7.72,1.78s-4.92-0.07-5.6,0.96    c-0.12,0.19-0.17,0.43-0.16,0.7l0,0c0,0,0,0,0,0c0,0.01,0,0.02,0,0.03c-0.14,1.51,1.19,2.93,1.94,3.47    c1.48,1.09,3.11,1.74,7.55,1.35c1.16-0.46,3.24-0.77,4,0.39c1.16,0.55,5.6,1.16,7.59,0v-0.99    C187.83,244.48,186.67,238.67,186.67,238.67z"></path>			<path id="XMLID_351_" class="st24" d="M190,168.82c2.5,12.92-6.45,27.05-5.73,37.48c1,14.3,1.55,20.54,3.02,32.18    c0,0-5.81,3.44-10.08-0.5c-4.38-22.81-6.31-26.9-5.71-68.63L190,168.82z"></path>			<g id="XMLID_348_">				<path id="XMLID_350_" class="st10" d="M154.68,109.4c-2.57,2.99-0.41,15.28,3.19,18.26c3.6,2.98,6.58,1.92,9.7-0.73     c3.12-2.66,4.95-9.26,4.2-14.25C170.76,105.9,162,100.87,154.68,109.4z"></path>				<path id="XMLID_349_" class="st4" d="M153.8,110.65c0,0-0.54,1.34-0.24,3.52c0.3,2.18,1.07,3.38,1.48,4.38     c0.41,1,0.27,1.73,0.7,2.13c0.43,0.39,0.36-2.83,1.37-3.64c1.01-0.81,2.47,2.69,0.44,4.84c-0.3,2.13,2.45,5.72,3.46,6.31     c1.01,0.59,5.22-0.05,7.82-2.63c2.6-2.57,3.16-6.69,3.78-12.03c0.62-5.34-3.37-7.1-3.37-7.1c-0.06-3.42-11.43-2.47-15.5-0.68     C151.28,106.99,153.8,110.65,153.8,110.65z"></path>			</g>			<path id="XMLID_347_" class="st10" d="M138.19,175.95c0,0-0.7,0.24-2.36,0.93c-1.66,0.69-5.22,0.93-7.45,0.57    c-2.22-0.35-5.29-0.85-4.7-1.66c0.59-0.81,11.79-3.61,12.26-3.39C136.42,172.62,138.19,175.95,138.19,175.95z"></path>			<path id="XMLID_318_" class="st4" d="M172.15,245.55l-7.59-0.68c0,0-4.85,1.37-7.72,1.78c-2.87,0.41-4.92-0.07-5.6,0.96    c-0.12,0.19-0.17,0.43-0.16,0.7h0c0,0,0,0,0,0c0,0.01,0,0.02,0,0.03c-0.14,1.51,1.19,2.93,1.94,3.47    c1.48,1.09,3.11,1.74,7.55,1.35c1.16-0.46,3.24-0.77,4,0.39c1.16,0.55,5.6,1.16,7.59,0v-0.99    C173.31,251.36,172.15,245.55,172.15,245.55z"></path>			<path id="XMLID_316_" class="st11" d="M184.25,172.08c0.83,13.17-9.96,27.58-10.58,38.22c-0.86,14.58-0.88,24.88-0.91,36.76    c0,0-9.7,4.59-10.13-2.51c-1.43-23.25-2.95-29.36,3.06-71.92L184.25,172.08z"></path>			<path id="XMLID_315_" class="st2" d="M158.86,129.83c5.42-2.7,14.19-10.1,21.36-0.42c6.72,9.07,9.48,36.33,10.25,41.76    c1.04,7.35-19.46,11.29-24.02,11.09c-1.03-0.05-1.66-0.52-1.96-1.54c-0.38-1.34,0.71-2.3,0.41-3.54    c-0.17-0.71-0.63-1.3-1.07-1.87c-0.44-0.57-0.88-1.19-0.99-1.91c-0.18-1.17,0.56-2.27,0.69-3.44c0.1-0.85-0.13-1.71-0.35-2.54    c-1.86-6.92-5.09-13.33-6.89-20.3c-1.22-4.71-2.96-12.21,0.92-16.11C157.64,130.59,158.28,129.98,158.86,129.83z"></path>			<path id="XMLID_314_" class="st2" d="M155.54,133.48c-4.34,13.75-4.74,20.56-8.99,25.99c-0.31,0.4-12.04,12.96-12.04,12.96    s1.58,2.84,5.67,3.59c6.55-2.8,13.95-13.1,15.94-15.31c1.15-1.27,7.61-13.13,8.58-19.15    C165.69,135.54,157.36,128.05,155.54,133.48z"></path>		</g>		<path id="XMLID_394_" class="st2" d="M162.36,99.08l-12.16-7.02l-20.55,11.86l-1.58,0.23v0.41c0,0.17,0.07,0.3,0.22,0.4   l12.39,7.15c0.38,0.22,1.03,0.19,1.47-0.06l20.56-11.87c0.27-0.15,0.38-0.35,0.35-0.54v-0.68L162.36,99.08z"></path>		<g id="XMLID_307_">			<path id="XMLID_311_" class="st4" d="M162.71,99.51l-20.56,11.87c-0.43,0.25-1.09,0.28-1.47,0.06l-12.62-7.28l22.13-12.78    l12.62,7.28C163.19,98.88,163.15,99.26,162.71,99.51z"></path>			<path id="XMLID_310_" class="st4" d="M162.71,99.51l-20.56,11.87c-0.43,0.25-1.09,0.28-1.47,0.06l-12.62-7.28l22.13-12.78    l12.62,7.28C163.19,98.88,163.15,99.26,162.71,99.51z"></path>			<polygon id="XMLID_309_" class="st2" points="161.58,99.34 141.56,110.89 135.59,107.45 155.61,95.89    "></polygon>			<path id="XMLID_308_" class="st2" d="M147.3,98.9l-4.77,2.75c-0.27,0.16-0.68,0.17-0.91,0.04l-2.29-1.32    c-0.23-0.14-0.21-0.37,0.07-0.53l4.77-2.75c0.27-0.16,0.68-0.17,0.91-0.04l2.29,1.32C147.6,98.5,147.57,98.74,147.3,98.9z"></path>		</g>		<g id="XMLID_305_">			<path id="XMLID_306_" class="st7" d="M111.37,75.31c5.49,2.7,6,18.84,10.2,22.87c2.38,2.28,11.9,0.46,15.15,0.52    c1.27,2.86-0.45,6.32-0.45,6.32c-18.14,0.89-20.32,1.45-24.93-7.37C107.73,90.77,104.03,73.48,111.37,75.31z"></path>		</g>		<g id="XMLID_302_">			<path class="st7" d="M147.82,94.12c-4.84-2.42-5.89-4.33-8.27-6.41c-4.2-3.68-5.86-18.38-9.38-20.22    c-2.29-0.52-3.5,0.56-3.97,2.48c-0.1,0.4-0.16,0.83-0.2,1.29c-0.18,2.41,0.43,5.62,1.43,8.65c0.84,2.58,1.96,5.03,3.11,6.76    c0.94,1.43,1.8,2.71,2.78,3.89c2.38,2.87,5.48,5.21,12.32,7.8C145.64,98.36,149.09,96.73,147.82,94.12z"></path>			<path id="XMLID_303_" class="st10" d="M145.84,97.82c0.1,0.3,1.06,1.35,1.9,2.3c0.84,0.95,2.17,2.59,2.58,2.18    c0.41-0.4-0.38-2.03-0.38-2.03s2.48,2.35,2.92,3.15c0.45,0.79,0.19-1.49-0.44-2.54c1.59,2.42,1.97,2.96,2.1,2.35    c0.13-0.6-1.19-3.88-1.01-3.56c1.83,2.77,2.53,3.15,2.34,1.88c-0.19-1.27-1.97-3.43-3.05-4.04c3.18,2.07,3.4,1.84,2.61,0.92    c-0.79-0.92-3.74-3.18-7.67-3.72C145.23,97.07,145.84,97.82,145.84,97.82z"></path>		</g>		<path id="XMLID_300_" class="st10" d="M147.95,102.9c-1.03-1.6-2.52-3.42-4.42-3.94c-1.32-0.36-2.74-0.08-4.05,0.34   c-1.05,0.34-2.55,0.49-3.57,0.95c-0.47,1.21-0.74,2.3-0.73,3.38c0.21,0.07,0.44,0.13,0.7,0.16c1.09,0.12,2.24,0.52,3.34,0.49   c0.74-0.02,1.92,0.21,2.6,0.01c-0.28,0.08-0.6,0.21-0.65,0.5c-0.03,0.24,0.17,0.46,0.41,0.52c1.62,0.42,3.05-1.55,4.05-2.47   C145.53,102.93,149.29,104.97,147.95,102.9z"></path>		<path id="XMLID_83_" class="st25" d="M130.89,51.37c0.02,0.03,0.04,0.07,0.07,0.1c0.68,1.11,0.76,2.48,0.68,3.78   c-0.15,2.36-1.74,5.26-0.62,7.54c0.48,0.97,1.45,1.67,1.75,2.71c0.41,1.43-0.63,2.9-1.87,3.71c-1.56,1.01-3.56,1.36-5.32,0.76   c-1.75-0.6-3.17-2.19-3.39-4.03c-0.26-2.23,1.13-4.28,2.37-6.15c0.71-1.06,1.7-2.49,1.78-3.81c0.08-1.23-0.58-2.3-0.33-3.62   c0.18-0.94,0.73-1.86,1.61-2.23C128.79,49.65,130.19,50.32,130.89,51.37z"></path>		<path id="XMLID_301_" class="st10" d="M117.7,61.76c0,0,1.45,5.06-1.88,7.17c-0.1,1.23,3.39,6.46,6.91,5.57   c2.05-0.52,3.09-3.44,3.09-3.44c-0.21-1.82-1.25-5.67-1.25-5.67L117.7,61.76z"></path>		<g id="XMLID_390_">			<path id="XMLID_388_" class="st10" d="M129.53,51.49c0,0,0.91,3.2,0.57,5.69c-0.34,2.49-0.57,7.44-2.77,9.03    s-5.37-0.26-7.46-2.03s-4.31-5.06-4.36-9.02c-0.05-3.97,1.5-8.82,7.22-8.57C128.44,46.83,129.53,51.49,129.53,51.49z"></path>		</g>		<path id="XMLID_60_" class="st25" d="M125.53,49.07c1.48,1.81,0.78,4.03-1.05,5.37c-0.87,0.64-1.91,1.04-2.78,1.68   c-0.87,0.64-1.6,1.66-1.44,2.73c0.14,0.98,0.99,1.85,0.76,2.81c-0.19,0.79-1.06,1.28-1.22,2.08c-0.16,0.81,0.46,1.52,0.85,2.25   c0.64,1.19,0.67,2.69,0.08,3.91c-1.34,2.75-4.74,2.57-7.16,1.42c-2.57-1.22-4.3-4.08-3.52-6.92c0.41-1.49,1.39-2.75,1.89-4.21   c0.64-1.86,0.45-3.88,0.58-5.84c0.24-3.72,3.03-7.88,6.94-8.45C122.02,45.52,123.98,47.17,125.53,49.07z"></path>		<path id="XMLID_50_" class="st25" d="M127.48,46.85c-0.01-0.01-0.02-0.02-0.04-0.02c-1.12-0.75-5.65-2.16-5.67,0.16   c-0.02,2.31,3.37,4.63,5.17,5.65c0.78,0.45,1.62,0.81,2.33,1.37c0.93,0.73,1.01,2.11,1.84,2.74c1.26-1.21,0.94-4.19,0.43-5.67   C130.87,49.1,129.13,47.98,127.48,46.85z"></path>		<g id="XMLID_391_">			<path id="XMLID_393_" class="st4" d="M162.71,99.51l-20.56,11.87l7.28-15.27c0.24-0.49,0.74-1.06,1.12-1.28l19.33-11.16    c0.38-0.22,0.49,0,0.25,0.49L162.71,99.51z"></path>		</g>		<line id="XMLID_49_" class="st3" x1="74.5" y1="238.16" x2="74.5" y2="238.1"></line>		<path class="st23" d="M60.93,143.98v-1.17c0,0-2.98-1.94-6.09-2s-4.58,0.66-4.69,1.03c-0.12,0.37-0.23,1.44-0.23,1.44   L60.93,143.98z"></path>		<path class="st25" d="M124.93,66.79c0,0-0.28,2.07-0.16,2.42c0.12,0.35,0.82,0.76,0.82,0.76h1.38L124.93,66.79z"></path>		<path class="st8" d="M134.03,80.05c-0.1-2.76-0.58-4.56-1.11-5.74c0.02,0.32,0.05,0.66,0.06,1.01c0.13,3.66-0.48,9-1.09,13.35   c0.46,0.66,0.93,1.29,1.43,1.89C133.78,86.89,134.14,82.95,134.03,80.05z"></path>		<path class="st2" d="M85.06,97.1c-0.01,4.24-1.36,11.13-2.47,16.25c0.44,0.66,0.88,1.26,1.34,1.79c1.02-4.95,2.02-10.7,1.89-14.2   C85.76,99.35,85.47,98.1,85.06,97.1z"></path>	</g>	<g id="XMLID_511_">		<polygon id="XMLID_514_" class="st11" points="88.15,63.5 82.91,60.48 82.91,46.24 88.15,49.26   "></polygon>		<polygon id="XMLID_513_" class="st26" points="79.9,58.74 74.67,55.72 74.67,36.09 79.9,39.11   "></polygon>		<polygon id="XMLID_512_" class="st7" points="96.39,68.27 91.16,65.24 91.16,36.41 96.39,39.43   "></polygon>	</g>	<g id="XMLID_46_">		<path id="XMLID_47_" class="st2" d="M166.62,52.57L166.62,52.57c-0.01-0.98-0.67-1.96-1.96-2.71c-2.61-1.5-6.82-1.51-9.41-0.02   c-1.3,0.75-1.94,1.74-1.93,2.72h0v6.04v0.02v0h0c0.01,0.98,0.66,1.96,1.96,2.71c2.61,1.5,6.82,1.51,9.41,0.02   c1.3-0.75,1.94-1.74,1.93-2.73h0V52.57z"></path>		<path id="XMLID_313_" class="st7" d="M171.89,39.09c0.88-1.42,1.71-2.86,2.25-4.46c0.77-2.29,1.27-4.68,1.34-7.07   c0.14-4.7-1.59-9.36-5.88-12.3c-0.33-0.23-0.68-0.42-1.06-0.58c-3.99-1.89-12.13-2.92-18.2,1.36c-3.35,1.43-6.86,7.11-5.67,13.49   c0.73,3.89,2.19,7.7,4.38,11.13c2.12,3.31,3.86,6.32,4.48,10.17l0.05,0.19c-0.14,0.93,0.48,1.88,1.87,2.59   c2.51,1.29,6.57,1.3,9.06,0.01c1.39-0.72,2-1.68,1.83-2.62c0.63-3.25,2.04-6.01,3.71-8.93C170.65,41.06,171.28,40.08,171.89,39.09   z"></path>		<path id="XMLID_317_" class="st27" d="M158.31,49.63l-2.27-21.08l1.47,2.33c0.17,0.26,0.5,0.35,0.77,0.19l1.94-1.09l1.65,3.38   c0.13,0.27,0.45,0.4,0.73,0.29l1.98-0.77l-2.88,18.63c-0.05,0.32,0.17,0.61,0.48,0.66c0.32,0.05,0.61-0.17,0.66-0.48l3.03-19.62   c0.03-0.2-0.05-0.41-0.21-0.54c-0.16-0.13-0.38-0.16-0.57-0.09l-2.42,0.95l-1.68-3.45c-0.07-0.14-0.2-0.25-0.35-0.3   c-0.15-0.05-0.32-0.03-0.46,0.05l-1.99,1.12l-2.51-3.98c-0.14-0.23-0.43-0.33-0.68-0.24c-0.25,0.09-0.41,0.34-0.38,0.61   l2.53,23.56c0.03,0.32,0.32,0.55,0.64,0.51C158.11,50.24,158.34,49.95,158.31,49.63L158.31,49.63z"></path>	</g>	<g id="XMLID_385_">		<path id="XMLID_395_" class="st11" d="M249.44,107.54c-0.75,0.61-1.52,1.15-2.32,1.61c-3.97,2.29-7.46,1.98-9.49-0.37l9.49-12.68   L249.44,107.54z"></path>		<path id="XMLID_392_" class="st7" d="M258.49,89.53c0,6.29-3.89,13.79-9.05,18.01l-2.32-11.44V83.04   C253.4,79.41,258.49,82.32,258.49,89.53z"></path>		<path id="XMLID_389_" class="st2" d="M247.12,83.04V96.1l-9.49,12.68c-1.2-1.38-1.89-3.45-1.89-6.11   C235.74,95.46,240.83,86.67,247.12,83.04z"></path>	</g>	<path class="st0" d="M44.36,63.04c-2.54,4.25-0.18,8.18,4.77,8.45c4.75,0.26,9.92-3.3,12.34-7.2c1.44-2.31,2.35-6.46-0.48-8.22  c-0.89-0.56-2.01-0.6-3.06-0.54C52.73,55.83,47.1,58.45,44.36,63.04z"></path>	<path class="st0" d="M182.09,44.93c0.38-0.04,0.78,0,1.19,0.13c2.87,0.91,2.26,4.93,0.24,6.4c-1.18,0.86-2.52,0.52-3.52-0.45  C177.99,49.05,179.49,45.18,182.09,44.93z"></path>	<g>		<defs>			<path id="XMLID_41_" d="M222.49,234.06c-26.88,15.52-60.08,24.49-92.17,26.48c-0.47,0.03-0.93,0.06-1.4,0.07    c-2.37,0.14-4.74,0.24-7.1,0.29c-0.46,0.02-0.9,0.03-1.36,0.03c-0.46,0.01-0.9,0.01-1.36,0.01c-0.5,0.01-1,0.01-1.5,0.01    c-28.21,0.12-54.75-5.34-74.38-16.67c-44.61-25.76-36.68-72.1,17.71-103.51c54.39-31.4,134.65-35.98,179.27-10.22    C284.82,156.32,276.89,202.66,222.49,234.06z"></path>		</defs>		<clipPath id="XMLID_2_">			<use xlink:href="#XMLID_41_" style="overflow:visible;"></use>		</clipPath>		<g class="st28">			<path class="st13" d="M141.45,262c0,0-7.89-5.67-8.58-14.43c-0.52-6.59,4.85-9.1,9.84-1.38c0,0-7.32-11.75-0.57-15.94    c4.96-3.08,7.57,5.8,7.57,5.8s-5.04-14.79,2.25-15.2c5.18-0.29,4.54,7.75,4.54,7.75s4.66-11.92,10.2-8.59L141.45,262z"></path>			<path class="st13" d="M166.71,220.01c0,0,7.1,2.66-2.51,13.05c0,0,7.14-4.66,9.78-0.2c2.64,4.46-13.24,9.54-13.24,9.54    s8.52-2.16,9.41,3.56c0.9,5.72-16.15,7.3-16.15,7.3s6.85,0.13,7.67,4.12c0.82,3.99-14.38,8.15-20.23,4.63L166.71,220.01z"></path>			<path class="st19" d="M151.12,258.16c-1.2,0.06-2.4,0.03-3.58-0.06c-0.92-0.07-1.83-0.2-2.73-0.38l6-10.36    c1.25,0.2,2.5,0.37,3.76,0.4c1.39,0.07,2.79,0.01,4.17-0.13c1.38-0.13,2.75-0.37,4.1-0.69c1.35-0.32,2.68-0.72,3.95-1.26    c-1.29,0.49-2.63,0.84-3.98,1.12c-1.35,0.27-2.72,0.46-4.09,0.54c-1.37,0.09-2.75,0.09-4.12-0.02c-1.17-0.07-2.33-0.26-3.48-0.49    l4.69-8.09c1.34-0.09,2.67-0.21,3.98-0.49c0.69-0.11,1.36-0.31,2.03-0.47c0.67-0.2,1.34-0.38,1.99-0.63    c1.31-0.45,2.59-0.99,3.83-1.61c1.24-0.62,2.44-1.31,3.57-2.1c-1.16,0.75-2.38,1.4-3.64,1.97c-1.25,0.57-2.55,1.06-3.86,1.46    c-0.65,0.22-1.32,0.37-1.99,0.55c-0.67,0.13-1.34,0.3-2.02,0.39c-1.17,0.21-2.36,0.29-3.54,0.33l9.04-15.59l-9.55,15.31    c-0.54-1.02-1.03-2.07-1.44-3.15c-0.47-1.25-0.89-2.53-1.21-3.83c-0.33-1.3-0.61-2.61-0.82-3.94c-0.21-1.33-0.38-2.66-0.46-4.01    c0.03,1.35,0.14,2.69,0.31,4.03c0.17,1.34,0.39,2.67,0.68,3.99c0.28,1.32,0.65,2.62,1.08,3.91c0.41,1.23,0.93,2.42,1.5,3.59    l-4.99,7.99c-0.82-0.79-1.57-1.67-2.24-2.61c-0.74-1.11-1.41-2.28-1.98-3.49c-0.56-1.22-1.05-2.47-1.47-3.75    c-0.41-1.28-0.77-2.58-1.03-3.91c0.21,1.33,0.52,2.65,0.89,3.95c0.37,1.3,0.82,2.58,1.34,3.83c0.53,1.25,1.16,2.46,1.88,3.62    c0.66,1.03,1.43,1.99,2.3,2.87l-6.32,10.12c-0.68-0.8-1.34-1.63-1.94-2.5c-0.76-1.09-1.47-2.21-2.12-3.37    c-0.65-1.16-1.26-2.34-1.83-3.55c-0.56-1.21-1.08-2.43-1.53-3.69c0.4,1.27,0.88,2.52,1.4,3.75c0.52,1.23,1.09,2.44,1.7,3.63    c0.61,1.19,1.29,2.35,2.01,3.48c0.61,0.96,1.29,1.87,2,2.76l-7.37,11.81l1.55,0.93l6.99-12.06c1,0.16,2,0.27,3.01,0.31    c1.21,0.03,2.42,0.01,3.63-0.1c1.2-0.1,2.4-0.26,3.59-0.47c1.19-0.21,2.36-0.47,3.52-0.8c-1.17,0.28-2.36,0.49-3.55,0.65    C153.52,258,152.32,258.11,151.12,258.16z"></path>		</g>		<g class="st28">			<path class="st13" d="M77.85,263.16c0,0-6.82,2.6-12.6-0.59c-4.35-2.4-3.71-6.8,3.2-6.74c0,0-10.4-0.27-10.24-6.24    c0.12-4.39,6.77-2.35,6.77-2.35s-11.37-2.95-8.61-7.7c1.96-3.37,6.74,0.35,6.74,0.35s-5.55-7.86-1.17-9.95L77.85,263.16z"></path>			<path class="st13" d="M61.95,229.94c0,0,4.6-3.35,7.15,6.97c0,0,0.03-6.41,3.92-6.22c3.89,0.19,0.51,12.25,0.51,12.25    s2.17-6.24,6.13-4.43c3.96,1.8-2.1,13.15-2.1,13.15s2.92-4.24,5.76-3.11c2.84,1.14-0.84,12.4-5.46,14.61L61.95,229.94z"></path>			<path class="st19" d="M79.44,255.5c-0.46,0.78-0.97,1.51-1.52,2.23c-0.42,0.55-0.88,1.07-1.37,1.56l-4.02-8.05    c0.64-0.7,1.27-1.42,1.81-2.2c0.62-0.85,1.16-1.74,1.64-2.67c0.49-0.92,0.91-1.88,1.26-2.86c0.35-0.98,0.65-1.98,0.84-3    c-0.23,1.01-0.56,2-0.95,2.96c-0.39,0.96-0.84,1.9-1.36,2.79c-0.51,0.9-1.08,1.76-1.72,2.57c-0.53,0.71-1.13,1.35-1.74,1.98    l-3.14-6.29c0.5-0.87,0.97-1.76,1.33-2.7c0.21-0.48,0.37-0.98,0.55-1.47c0.15-0.5,0.31-1,0.43-1.51    c0.26-1.01,0.45-2.04,0.57-3.07c0.12-1.03,0.19-2.07,0.16-3.11c-0.01,1.04-0.11,2.07-0.27,3.1c-0.16,1.02-0.39,2.04-0.68,3.03    c-0.13,0.5-0.32,0.98-0.48,1.47c-0.2,0.48-0.36,0.97-0.59,1.43c-0.35,0.82-0.79,1.6-1.26,2.36l-6.05-12.12l5.65,12.32    c-0.86-0.08-1.73-0.21-2.58-0.4c-0.98-0.22-1.95-0.49-2.9-0.82c-0.95-0.33-1.89-0.7-2.81-1.11c-0.92-0.42-1.83-0.87-2.7-1.37    c0.86,0.54,1.75,1.02,2.65,1.47c0.91,0.45,1.84,0.86,2.78,1.22c0.94,0.37,1.92,0.68,2.9,0.94c0.94,0.25,1.9,0.42,2.87,0.54    l2.95,6.44c-0.84,0.19-1.7,0.3-2.57,0.32c-1,0.01-2.01-0.06-3.01-0.2c-1-0.15-1.99-0.36-2.96-0.63    c-0.98-0.27-1.94-0.58-2.88-0.97c0.92,0.42,1.88,0.77,2.85,1.08c0.97,0.3,1.96,0.55,2.96,0.75c1,0.18,2.02,0.29,3.05,0.32    c0.92,0.01,1.84-0.08,2.75-0.25l3.74,8.15c-0.79,0.1-1.58,0.17-2.37,0.19c-1,0.02-1.99,0.01-2.99-0.06    c-1-0.07-1.99-0.17-2.98-0.32c-0.99-0.15-1.98-0.33-2.95-0.56c0.96,0.27,1.94,0.49,2.93,0.67c0.99,0.18,1.98,0.33,2.98,0.44    c1,0.11,2.01,0.16,3.01,0.18c0.85,0.01,1.71-0.03,2.56-0.11l4.36,9.51l1.23-0.59l-4.68-9.37c0.52-0.56,1-1.14,1.44-1.76    c0.52-0.75,1.01-1.52,1.44-2.32c0.43-0.8,0.83-1.61,1.19-2.45c0.36-0.83,0.68-1.68,0.96-2.54c-0.31,0.85-0.67,1.68-1.06,2.49    C80.33,253.93,79.9,254.73,79.44,255.5z"></path>		</g>		<g class="st28">			<path class="st13" d="M259.77,199.41c0,0-7.27-0.65-11.07-6.05c-2.86-4.06-0.35-7.74,5.84-4.66c0,0-9.23-4.8-6.47-10.09    c2.03-3.89,7.12,0.85,7.12,0.85s-8.92-7.64-4.36-10.7c3.24-2.17,5.9,3.27,5.9,3.27s-1.55-9.49,3.31-9.46L259.77,199.41z"></path>			<path class="st13" d="M260.04,162.58c0,0,5.61-1,3.37,9.4c0,0,2.84-5.75,6.25-3.88c3.41,1.87-4.91,11.23-4.91,11.23    s4.68-4.65,7.45-1.3c2.77,3.36-7.65,10.9-7.65,10.9s4.48-2.54,6.54-0.27c2.06,2.27-6.19,10.77-11.31,10.74L260.04,162.58z"></path>			<path class="st19" d="M264.55,193.22c-0.75,0.5-1.54,0.93-2.34,1.34c-0.62,0.31-1.26,0.57-1.91,0.8l-0.08-9    c0.88-0.35,1.76-0.72,2.59-1.18c0.93-0.49,1.81-1.06,2.65-1.68c0.84-0.61,1.64-1.29,2.39-2.02c0.75-0.72,1.46-1.49,2.07-2.33    c-0.65,0.81-1.38,1.55-2.15,2.25c-0.77,0.69-1.59,1.34-2.44,1.91c-0.85,0.58-1.74,1.11-2.67,1.56c-0.78,0.4-1.61,0.72-2.43,1.02    l-0.06-7.03c0.83-0.57,1.65-1.16,2.38-1.84c0.4-0.34,0.76-0.72,1.13-1.08c0.35-0.39,0.72-0.76,1.05-1.17    c0.67-0.8,1.3-1.63,1.86-2.51c0.56-0.87,1.08-1.78,1.51-2.73c-0.46,0.93-1.01,1.82-1.6,2.67c-0.59,0.85-1.24,1.66-1.94,2.42    c-0.34,0.39-0.71,0.75-1.08,1.11c-0.39,0.34-0.75,0.71-1.16,1.03c-0.68,0.58-1.42,1.09-2.17,1.57l-0.12-13.54l-0.32,13.56    c-0.74-0.45-1.46-0.94-2.14-1.49c-0.78-0.63-1.54-1.29-2.25-2.01c-0.71-0.71-1.39-1.46-2.04-2.23c-0.64-0.78-1.26-1.58-1.83-2.42    c0.53,0.86,1.12,1.69,1.74,2.49c0.62,0.8,1.28,1.58,1.96,2.32c0.68,0.75,1.43,1.45,2.19,2.12c0.73,0.64,1.52,1.21,2.34,1.75    l-0.17,7.08c-0.84-0.2-1.66-0.48-2.45-0.84c-0.91-0.43-1.78-0.93-2.62-1.5c-0.83-0.57-1.63-1.2-2.39-1.87    c-0.76-0.67-1.49-1.38-2.16-2.13c0.64,0.78,1.35,1.52,2.08,2.22c0.74,0.7,1.52,1.36,2.33,1.97c0.82,0.6,1.69,1.15,2.6,1.62    c0.82,0.41,1.69,0.74,2.58,0.98l-0.21,8.97c-0.75-0.26-1.49-0.54-2.21-0.87c-0.9-0.41-1.8-0.86-2.66-1.37    c-0.87-0.5-1.71-1.03-2.54-1.6c-0.82-0.57-1.63-1.16-2.4-1.8c0.75,0.67,1.53,1.29,2.34,1.89c0.81,0.6,1.64,1.16,2.49,1.7    c0.85,0.54,1.73,1.03,2.63,1.48c0.76,0.39,1.55,0.72,2.35,1.02l-0.25,10.46l1.36,0.01l-0.1-10.47c0.71-0.28,1.4-0.59,2.06-0.95    c0.8-0.44,1.57-0.92,2.31-1.45c0.74-0.53,1.45-1.09,2.14-1.68c0.69-0.59,1.35-1.21,1.97-1.86c-0.65,0.63-1.34,1.22-2.05,1.78    C266.04,192.21,265.31,192.73,264.55,193.22z"></path>		</g>		<g class="st28">			<path class="st13" d="M254.96,213.03c0,0-4.94,3.31-10.11,1.83c-3.89-1.11-4.18-4.73,1.32-5.94c0,0-8.31,1.68-9.27-3.09    c-0.7-3.5,4.95-3.1,4.95-3.1s-9.56-0.27-8.24-4.55c0.94-3.03,5.42-0.95,5.42-0.95s-5.84-5.23-2.74-7.69L254.96,213.03z"></path>			<path class="st13" d="M236.28,189.55c0,0,3.04-3.5,6.95,4.23c0,0-1.14-5.1,1.98-5.65c3.12-0.56,2.64,9.63,2.64,9.63    s0.59-5.35,4.06-4.64c3.47,0.71,0.73,10.82,0.73,10.82s1.54-3.9,4.01-3.52c2.46,0.39,1.59,9.99-1.68,12.59L236.28,189.55z"></path>			<path class="st19" d="M254.82,206.66c-0.22,0.7-0.5,1.38-0.8,2.04c-0.24,0.51-0.51,1.01-0.8,1.48l-4.66-5.66    c0.38-0.67,0.75-1.36,1.03-2.07c0.34-0.78,0.6-1.6,0.82-2.42c0.22-0.82,0.38-1.66,0.48-2.5c0.1-0.84,0.16-1.69,0.12-2.54    c0.01,0.85-0.08,1.69-0.21,2.52c-0.13,0.83-0.32,1.66-0.57,2.46c-0.24,0.81-0.54,1.6-0.89,2.36c-0.29,0.66-0.65,1.28-1.02,1.89    l-3.64-4.42c0.24-0.79,0.45-1.58,0.57-2.39c0.08-0.42,0.11-0.85,0.16-1.27c0.03-0.43,0.07-0.85,0.07-1.27    c0.02-0.85-0.01-1.7-0.11-2.54c-0.09-0.84-0.23-1.68-0.44-2.5c0.18,0.83,0.29,1.67,0.35,2.51c0.06,0.84,0.06,1.69,0.01,2.53    c-0.02,0.42-0.07,0.84-0.11,1.26c-0.07,0.41-0.11,0.83-0.21,1.24c-0.13,0.72-0.34,1.41-0.57,2.1l-7.01-8.52l6.73,8.76    c-0.7,0.09-1.41,0.15-2.12,0.15c-0.82,0-1.64-0.03-2.45-0.13c-0.82-0.09-1.63-0.21-2.44-0.37c-0.81-0.16-1.61-0.35-2.4-0.6    c0.78,0.27,1.57,0.49,2.38,0.69c0.8,0.19,1.61,0.35,2.43,0.47c0.82,0.12,1.64,0.19,2.47,0.22c0.79,0.03,1.59-0.01,2.38-0.09    l3.52,4.57c-0.63,0.3-1.29,0.55-1.98,0.72c-0.79,0.19-1.61,0.32-2.43,0.39c-0.82,0.06-1.64,0.07-2.47,0.04    c-0.82-0.04-1.65-0.11-2.46-0.25c0.81,0.17,1.63,0.27,2.46,0.34c0.83,0.07,1.65,0.08,2.48,0.05c0.83-0.04,1.66-0.14,2.48-0.3    c0.73-0.16,1.45-0.39,2.14-0.7l4.45,5.79c-0.61,0.22-1.22,0.42-1.85,0.58c-0.79,0.2-1.58,0.37-2.39,0.5    c-0.8,0.13-1.61,0.22-2.43,0.29c-0.81,0.06-1.63,0.1-2.44,0.09c0.82,0.04,1.63,0.03,2.45,0c0.82-0.03,1.63-0.1,2.45-0.2    c0.81-0.09,1.62-0.24,2.42-0.41c0.68-0.14,1.35-0.34,2.01-0.55l5.2,6.76l0.87-0.69l-5.42-6.59c0.31-0.54,0.59-1.09,0.82-1.66    c0.28-0.69,0.53-1.39,0.72-2.1c0.2-0.71,0.37-1.43,0.5-2.16c0.13-0.73,0.24-1.46,0.3-2.19c-0.09,0.73-0.23,1.46-0.39,2.17    C255.24,205.25,255.05,205.96,254.82,206.66z"></path>		</g>		<g class="st28">			<path class="st29" d="M103.12,214.99c0.79,1.79,3.13,2.98,6.3,3.97c0.62,2.38,1.56,4.71,1.83,7.1c0.22-0.81,0.32-1.66,0.33-2.5    c0.01-1.38-0.21-2.75-0.45-4.1c1.41,0.38,2.94,0.74,4.53,1.09c1.03,2.6,1.3,5.47,1.23,8.28c-0.04,2.06-0.26,4.11-0.63,6.14    c0.54-0.78,0.97-1.67,1.39-2.54c0.41-0.87,0.83-1.76,1.07-2.69c0.24-0.91,0.31-1.85,0.32-2.79c0.03-1.93-0.15-3.87-0.55-5.76    c1.74,0.38,3.52,0.79,5.28,1.25c0.1,0.47,0.19,0.93,0.27,1.4c0.79,4.66,0.33,9.51-1.27,13.95c0.15-0.21,0.29-0.42,0.44-0.64    c0.77-1.12,1.53-2.25,2.16-3.45c0.42-0.79,0.78-1.62,1.01-2.49c0.71-2.62,0.22-5.35-0.09-8.07c1.98,0.59,3.88,1.25,5.64,2.06    c0.04,1.71-0.09,3.44-0.22,5.15c-0.06,0.76-0.12,1.52-0.27,2.26c-0.2,0.97-0.55,1.91-0.91,2.83c-1.44,3.69-3.05,7.39-5.46,10.5    c0.59-0.44,1.14-0.95,1.67-1.48c4.68-4.73,7.44-11.24,7.85-17.88c1.55,0.92,2.89,2,3.98,3.26c0.67,0.78,1.3,1.6,1.87,2.43    c-0.01,1.94-0.17,3.88-0.5,5.79c-0.25,1.49-0.61,2.99-1.32,4.34c-0.42,0.8-0.95,1.54-1.52,2.25c-2.79,3.51-6.3,6.35-9.88,9.07    c5.63-1.85,10.76-5.36,14-10.31c0.9-1.38,1.67-2.87,2.48-4.33c1.69,5.8,0.76,11.83-3.73,16.44c-7,7.18-16.93,4.62-16.93,4.62    L103.12,214.99z"></path>			<path class="st29" d="M123.04,260.11c0,0-6.49,10.49-17.18,10.2c-5.53-0.15-10.05-4.1-13-8.87c1.07,0.45,2.15,0.9,3.27,1.22    c3.39,0.96,7.04,0.68,10.42-0.3c2.4-0.69,4.69-1.71,6.91-2.87c-2.45,0.3-4.93,0.36-7.4,0.42c-1.3,0.03-2.61,0.06-3.89-0.19    c-1.18-0.23-2.29-0.68-3.39-1.14c-1.28-0.52-2.56-1.04-3.75-1.73c-2.27-1.3-4.17-3.14-5.78-5.22c-0.16-1.2-0.17-2.32-0.04-3.31    c0.18-1.36,0.47-2.72,0.83-4.06c0.76,0.74,1.52,1.48,2.27,2.22c0.82,0.81,1.66,1.62,2.6,2.3c0.96,0.71,2.02,1.26,3.11,1.74    c3.38,1.48,7.08,2.2,10.77,2.12c-1.69-0.43-3.36-0.97-4.96-1.69c-1.41-0.63-2.75-1.42-4.09-2.2c-1.22-0.71-2.45-1.43-3.6-2.24    c-1.95-1.39-3.69-3.05-5.29-4.83c0.58-1.66,1.27-3.29,2.03-4.87c0.97,1.37,2.06,2.63,3.31,3.75c2.29,2.05,5.15,3.55,8.21,3.85    c0.52,0.05,1.04,0.07,1.55,0.07c-2.8-1.08-5.43-2.6-7.76-4.51c-0.66-0.54-1.3-1.11-1.85-1.75c-0.97-1.13-1.66-2.44-2.26-3.81    c0.8-1.53,1.64-3,2.46-4.42c1.16,2.06,2.76,3.87,4.67,5.26c1.47,1.07,3.14,1.9,4.89,2.43c-1.39-0.9-2.62-2.07-3.65-3.37    c-1.78-2.29-2.97-4.97-3.88-7.72c0.63-1.05,1.22-2.03,1.78-2.98c1.03,1.75,2.37,3.33,3.92,4.63c-1.37-1.85-2.41-3.95-3.05-6.17    c1.67-3.06,2.61-5.49,1.91-7.07L123.04,260.11z"></path>			<path class="st19" d="M133.25,254.12c-0.88,0.48-1.79,0.9-2.73,1.26c-0.94,0.35-1.89,0.65-2.87,0.87    c-1.83,0.42-3.7,0.59-5.57,0.54l-1.86-4.09c2.08-0.81,4.08-1.81,5.94-3.03c0.51-0.31,0.97-0.68,1.46-1.02    c0.46-0.37,0.94-0.72,1.38-1.12c0.9-0.77,1.73-1.62,2.51-2.51c1.56-1.78,2.84-3.8,3.81-5.95c0.96-2.15,1.66-4.44,1.86-6.79    c-0.26,2.34-1.01,4.6-2.01,6.72c-1.02,2.11-2.33,4.08-3.91,5.8c-0.79,0.86-1.63,1.68-2.53,2.42c-0.44,0.39-0.92,0.72-1.38,1.08    c-0.49,0.32-0.95,0.68-1.46,0.97c-1.87,1.17-3.87,2.11-5.94,2.86l-2.35-5.15l2.15-1.56c0.74-0.65,1.52-1.26,2.24-1.93l1.05-1.04    c0.17-0.18,0.35-0.34,0.52-0.53l0.48-0.56c0.32-0.38,0.65-0.74,0.95-1.13l0.86-1.2c1.1-1.62,2.03-3.38,2.64-5.24    c0.59-1.86,0.95-3.83,0.75-5.78c0.15,1.95-0.26,3.9-0.9,5.73c-0.65,1.83-1.62,3.54-2.75,5.11l-0.88,1.16    c-0.31,0.37-0.65,0.72-0.97,1.08l-0.49,0.54c-0.17,0.18-0.35,0.34-0.52,0.5l-1.06,1c-0.72,0.64-1.5,1.22-2.25,1.84l-2.08,1.43    l-1.79-3.91c0.51-0.59,1.04-1.16,1.52-1.77l0.74-1.01c0.12-0.17,0.25-0.33,0.36-0.51l0.33-0.54l0.65-1.07l0.56-1.12    c0.09-0.19,0.19-0.37,0.27-0.56l0.23-0.58c0.15-0.39,0.33-0.77,0.45-1.17c0.55-1.57,0.88-3.22,1.03-4.87    c0.14-1.65,0.09-3.33-0.26-4.95c0.3,1.63,0.29,3.3,0.1,4.93c-0.2,1.63-0.57,3.25-1.17,4.78c-0.13,0.39-0.32,0.75-0.48,1.13    l-0.25,0.56c-0.09,0.19-0.19,0.36-0.29,0.54l-0.58,1.08l-0.67,1.03l-0.34,0.51c-0.12,0.17-0.25,0.32-0.37,0.49l-0.76,0.96    c-0.43,0.52-0.91,1-1.37,1.5l-2.78-6.09l0.05,0.02c0.37-1.08,0.67-2.18,0.88-3.29c0.2-1.11,0.36-2.23,0.45-3.35    c0.17-2.24,0.17-4.5-0.04-6.73c0.1,2.24,0,4.48-0.28,6.7c-0.14,1.11-0.35,2.2-0.6,3.29c-0.21,0.89-0.49,1.77-0.8,2.62    l-6.03-13.22l5.77,13.51c-1.12-0.12-2.23-0.35-3.28-0.8c-1.16-0.5-2.27-1.13-3.29-1.91c-1.01-0.78-1.94-1.67-2.79-2.64    c-0.84-0.97-1.63-2-2.29-3.11c0.61,1.14,1.35,2.2,2.16,3.21c0.81,1.01,1.72,1.94,2.71,2.78c1,0.84,2.11,1.54,3.29,2.1    c1.18,0.56,2.46,0.86,3.76,1.03l2.62,6.14c-0.73,0.09-1.46,0.14-2.19,0.12c-0.86-0.03-1.72-0.11-2.57-0.27    c-1.7-0.31-3.36-0.86-4.95-1.57c-1.59-0.72-3.11-1.57-4.56-2.54c-1.45-0.97-2.84-2.04-4.12-3.23c1.24,1.23,2.61,2.34,4.03,3.36    c1.43,1.02,2.94,1.93,4.52,2.7c1.59,0.76,3.25,1.38,4.99,1.75c0.87,0.19,1.75,0.3,2.64,0.36c0.82,0.04,1.65,0.01,2.47-0.08    l1.7,3.98c-1.88,0.73-3.88,1.17-5.91,1.22c-2.14,0.08-4.3-0.23-6.37-0.8c-2.08-0.58-4.09-1.41-5.99-2.44    c-1.9-1.03-3.73-2.22-5.39-3.61c1.63,1.44,3.43,2.67,5.32,3.75c1.89,1.08,3.89,1.97,5.98,2.6c2.09,0.63,4.27,1,6.47,0.97    c2.09,0,4.18-0.41,6.15-1.12l2.21,5.17c-2.04,1.15-4.21,2.06-6.47,2.66c-1.19,0.3-2.41,0.54-3.64,0.64    c-1.23,0.12-2.47,0.14-3.7,0.04c-2.47-0.17-4.9-0.77-7.19-1.73c-1.15-0.48-2.26-1.04-3.32-1.69c-1.06-0.65-2.09-1.36-3.02-2.19    c0.91,0.85,1.92,1.59,2.97,2.26c1.05,0.67,2.16,1.26,3.3,1.76c2.28,1.01,4.73,1.67,7.23,1.9c1.25,0.13,2.51,0.13,3.76,0.04    c1.25-0.08,2.5-0.3,3.72-0.58c2.3-0.56,4.52-1.43,6.61-2.54l1.76,4.13c-1.33,1.65-2.83,3.17-4.51,4.46    c-0.43,0.36-0.91,0.65-1.36,0.98c-0.48,0.29-0.94,0.61-1.44,0.86c-0.98,0.55-2.01,1.01-3.07,1.38c-2.11,0.77-4.36,1.15-6.62,1.18    c-2.25,0.02-4.53-0.27-6.67-1.01c2.12,0.79,4.4,1.14,6.67,1.17c2.27,0.02,4.56-0.31,6.72-1.04c1.08-0.36,2.14-0.8,3.15-1.34    c0.52-0.25,0.99-0.56,1.49-0.85c0.47-0.32,0.97-0.61,1.41-0.97c1.65-1.22,3.16-2.64,4.5-4.2l5.1,11.95l1.17-0.52l-5.4-11.85    c1.82-0.02,3.64-0.25,5.4-0.71c0.99-0.25,1.95-0.59,2.9-0.97c0.94-0.4,1.85-0.85,2.73-1.35c1.76-1.02,3.38-2.26,4.85-3.66    c1.46-1.4,2.79-2.95,3.86-4.66c-1.12,1.68-2.49,3.18-3.97,4.54C136.66,251.98,135.01,253.16,133.25,254.12z"></path>		</g>		<g class="st28">			<g>				<path class="st29" d="M230.83,204.04c0.26,1.01,0.13,2.24,0.11,3.28c-0.02,1.16-0.05,2.33,0.43,3.41     c0.44,0.99,2.09,0.68,2.29-0.33c0.25-1.26-0.21-2.5-0.74-3.63c-0.23-0.49-0.47-0.98-0.77-1.44c-0.32-0.5-0.71-0.92-1-1.43     C231.05,203.72,230.77,203.84,230.83,204.04L230.83,204.04z"></path>			</g>			<g>				<path class="st29" d="M224.48,209.26c1.04,0.63,1.29,1.75,1.79,2.79c0.49,1.02,1.2,2.53,2.46,2.66c0.96,0.1,1.66-0.75,1.19-1.65     c-0.32-0.6-0.81-0.87-1.29-1.31c-0.43-0.4-0.83-0.84-1.25-1.26c-0.39-0.39-0.9-0.71-1.37-1.02c-0.42-0.27-0.88-0.54-1.36-0.68     C224.35,208.71,224.25,209.12,224.48,209.26L224.48,209.26z"></path>			</g>			<g>				<path class="st29" d="M239.94,204.84c-0.49,0.15-0.82,0.28-1.18,0.67c-0.37,0.4-0.66,0.86-1,1.29c-0.35,0.44-0.7,0.94-1.06,1.4     c-0.45,0.58-1.2,1.21-1.33,1.94c-0.16,0.86,0.51,1.89,1.5,1.59c1.34-0.41,2.26-2.2,2.63-3.47c0.15-0.5,0.13-1,0.2-1.51     c0.06-0.45,0.12-1.15,0.47-1.49C240.34,205.09,240.18,204.77,239.94,204.84L239.94,204.84z"></path>			</g>			<g>				<path class="st29" d="M221.81,217.95c0.37,0.3,0.96,0.36,1.42,0.5c0.62,0.18,1.2,0.4,1.84,0.48c1.42,0.19,2.98-0.18,4.25-0.83     c0.85-0.43,0.71-1.94-0.27-2.11c-1.41-0.25-2.62,0.57-4.01,0.68c-0.62,0.05-1.23,0.11-1.84,0.22c-0.5,0.08-1.18,0.24-1.45,0.7     C221.68,217.68,221.71,217.87,221.81,217.95L221.81,217.95z"></path>			</g>			<g>				<path class="st29" d="M242.86,215.44c-0.53,0-1.12-0.39-1.59-0.62c-0.57-0.28-1.13-0.58-1.7-0.85c-0.72-0.33-1.12-0.5-1.79-0.75     c-0.79-0.3-1.8-0.21-1.96,0.81c-0.26,1.69,2.31,2.27,3.52,2.27c0.67,0,1.34-0.09,2-0.21c0.53-0.1,1.02-0.35,1.54-0.46     C242.98,215.6,242.97,215.44,242.86,215.44L242.86,215.44z"></path>			</g>			<g>				<path class="st29" d="M239.67,221.26c-0.2-0.74-0.8-1.4-1.17-2.08c-0.44-0.8-0.78-1.77-1.45-2.41     c-0.82-0.78-2.45-0.02-2.04,1.17c0.37,1.07,1.27,1.79,2.17,2.43c0.64,0.46,1.53,1.12,2.36,1.05     C239.63,221.42,239.7,221.35,239.67,221.26L239.67,221.26z"></path>			</g>			<g>				<path class="st29" d="M228.65,223.83c0.22-0.35,0.53-0.47,0.81-0.75c0.38-0.38,0.74-0.78,1.11-1.17     c0.74-0.76,1.91-1.89,1.65-3.04c-0.16-0.72-1.06-1.08-1.68-0.71c-0.53,0.32-0.75,0.92-1.05,1.44c-0.29,0.51-0.62,0.99-0.87,1.52     c-0.39,0.82-0.91,1.82-0.36,2.7C228.36,223.97,228.56,223.97,228.65,223.83L228.65,223.83z"></path>			</g>			<path class="st19" d="M241.48,215.53c-1.56-0.04-2.96-0.85-4.45-1.21c-1.14-0.28-2.38-0.25-3.5,0.11    c0.11-0.26,0.26-0.5,0.46-0.73c0.67-0.74,1.25-1.53,1.83-2.35c0.63-0.89,1.23-1.8,1.81-2.72c0.29-0.47,0.59-0.93,0.85-1.42    c0.22-0.41,0.34-0.88,0.68-1.21c0.04-0.04-0.02-0.11-0.06-0.07c-0.27,0.25-0.4,0.56-0.55,0.88c-0.27,0.57-0.63,1.11-0.98,1.64    c-0.67,1.04-1.37,2.06-2.11,3.05c-0.35,0.47-0.7,0.95-1.07,1.4c-0.31,0.37-0.7,0.69-0.96,1.09c-0.04,0.06-0.07,0.12-0.1,0.18    c-0.01-0.2-0.03-0.39-0.06-0.59c-0.12-0.83-0.31-1.66-0.45-2.49c-0.14-0.82-0.2-1.66-0.36-2.48c-0.19-1.03-0.61-1.99-0.93-2.98    c-0.02-0.05-0.1-0.04-0.08,0.02c0.26,0.89,0.59,1.76,0.77,2.66c0.17,0.86,0.2,1.74,0.31,2.61c0.11,0.84,0.31,1.67,0.43,2.51    c0.06,0.42,0.07,0.86,0.1,1.3c-1.28-0.4-2.65-0.45-3.83-1.18c-1.18-0.73-2.11-1.9-2.82-3.07c-0.02-0.03-0.05,0-0.04,0.02    c0.65,1.17,1.52,2.34,2.62,3.14c1.07,0.78,2.52,1.06,3.83,1.35c-1.23,0.77-2.56,1.18-3.97,1.56c-1.54,0.41-3.07,0.86-4.64,1.14    c-0.06,0.01-0.04,0.11,0.01,0.1c1.63-0.21,3.2-0.68,4.78-1.09c1.35-0.35,2.74-0.68,3.92-1.44c-0.07,0.3-0.12,0.62-0.25,0.9    c-0.3,0.66-0.67,1.3-1.04,1.92c-0.79,1.33-1.63,2.63-2.38,3.98c-0.01,0.03,0.03,0.04,0.04,0.02c0.81-1.28,1.75-2.48,2.52-3.78    c0.35-0.6,0.7-1.21,1-1.84c0.11-0.22,0.18-0.47,0.25-0.71c0.01,0.16,0.02,0.32,0.03,0.48c0.05,1.21,0.43,2.45,0.61,3.6    c0.3,1.86,0.45,3.75,0.7,5.62c0.26,1.95,0.44,3.89,0.52,5.85c0.08,1.87,0.13,3.77,0.55,5.59c0.18,0.78,1.37,0.5,1.21-0.29    c-0.38-1.86-0.55-3.73-0.72-5.62c-0.16-1.86-0.47-3.64-0.81-5.47c-0.34-1.8-0.61-3.62-1-5.41c-0.31-1.43-0.67-2.79-0.83-4.23    c0.04-0.02,0.08-0.06,0.07-0.12c-0.01-0.06-0.01-0.11-0.01-0.17c0.69,0.86,1.88,1.4,2.63,2.15c0.47,0.46,0.9,0.95,1.3,1.47    c0.36,0.47,0.69,0.94,1.18,1.29c0.06,0.05,0.13-0.06,0.06-0.11c-0.59-0.4-0.96-0.97-1.37-1.53c-0.32-0.43-0.69-0.84-1.06-1.24    c-0.85-0.93-1.99-1.54-2.71-2.58c0.04-0.05,0.03-0.13-0.02-0.18c0.01-0.02,0.03-0.05,0.04-0.07c0.01-0.01,0.01-0.02,0.01-0.02    c1.28-0.46,2.75-0.52,4.06-0.14c1.31,0.38,2.56,1,3.96,0.96C241.54,215.6,241.54,215.53,241.48,215.53z"></path>		</g>	</g></g><g id="Designed_By_Freepik"></g></svg>